<?xml version="1.0" encoding="UTF-8" standalone="no"?>
<svg
     xmlns:dc="http://purl.org/dc/elements/1.1/"
     xmlns:cc="http://creativecommons.org/ns#"
     xmlns:rdf="http://www.w3.org/1999/02/22-rdf-syntax-ns#"
     xmlns:svg="http://www.w3.org/2000/svg"
     xmlns="http://www.w3.org/2000/svg"
     xmlns:sodipodi="http://sodipodi.sourceforge.net/DTD/sodipodi-0.dtd"
     xmlns:inkscape="http://www.inkscape.org/namespaces/inkscape"
     width="265.47763mm"
     height="265.4505mm"
     version="1.1"
     viewBox="0 0 1001.8024 1001.7"
     id="svg20"
     sodipodi:docname="mikenakis-clio.svg"
     inkscape:version="1.0.2 (e86c870879, 2021-01-15, custom)">
    <metadata
         id="metadata26">
        <rdf:RDF>
            <cc:Work
                 rdf:about="">
                <dc:format>image/svg+xml</dc:format>
                <dc:type
                     rdf:resource="http://purl.org/dc/dcmitype/StillImage" />
                <dc:title></dc:title>
            </cc:Work>
        </rdf:RDF>
    </metadata>
    <defs
         id="defs24" />
    <sodipodi:namedview
         pagecolor="#ffffff"
         bordercolor="#666666"
         borderopacity="1"
         objecttolerance="10"
         gridtolerance="10"
         guidetolerance="10"
         inkscape:pageopacity="0"
         inkscape:pageshadow="2"
         inkscape:window-width="640"
         inkscape:window-height="480"
         id="namedview22"
         showgrid="false"
         inkscape:zoom="0.81854179"
         inkscape:cx="563.28623"
         inkscape:cy="412.71435"
         inkscape:current-layer="svg20"
         inkscape:document-rotation="0"
         fit-margin-top="0"
         fit-margin-left="0"
         fit-margin-right="0"
         fit-margin-bottom="0" />
    <path
         d="M 500.85,0 A 500.85,500.85 0 0 0 0,500.85 500.85,500.85 0 0 0 500.85,1001.7 500.85,500.85 0 0 0 1001.7,500.85 500.85,500.85 0 0 0 500.85,0 Z"
         fill="#9d7951"
         id="path2"
         style="stroke-width:0.265212" />
    <g
         transform="matrix(7.452,0,0,7.452,-3601.3311,-291.35724)"
         id="g16"
         style="stroke-width:0.278">
        <g
             stroke-width="0.134"
             id="g12">
            <path
                 d="m 568,98.9 c -0.203,-0.328 -0.226,-0.316 0.784,-0.411 0.436,-0.0411 0.971,-0.117 1.19,-0.169 0.218,-0.052 0.396,0.0837 0.396,0.302 0,0.473 -2.1,0.719 -2.37,0.278 z m 11.2,-10.8 c 0,-0.273 0.178,-0.644 0.396,-0.825 0.218,-0.181 0.396,-0.552 0.396,-0.825 0,-0.703 0.333,-0.617 1.15,0.294 0.867,0.973 0.883,1.16 0.0808,0.96 -0.43,-0.108 -0.771,0.0062 -1.1,0.368 -0.596,0.658 -0.921,0.668 -0.921,0.0281 z"
                 fill="#a8825b"
                 id="path4" />
            <path
                 d="m 508.56919,158 c 0.314,-0.311 1.06,-1.85 1.67,-3.42 1.5,-3.91 4.78,-8.39 6.96,-9.5 0.464,-0.237 0.94,-0.596 1.06,-0.797 0.12,-0.201 0.327,-0.297 0.464,-0.212 0.137,0.085 0.321,-0.0315 0.408,-0.259 0.0872,-0.227 0.324,-0.413 0.527,-0.413 0.202,0 0.368,-0.0913 0.368,-0.203 0,-0.112 0.743,-0.492 1.65,-0.846 0.909,-0.354 1.89,-0.792 2.18,-0.974 0.781,-0.488 3.7,-1.4 5.81,-1.81 1.02,-0.199 2.7,-0.547 3.75,-0.774 2.68,-0.584 3.39,-0.147 2.2,1.36 -0.63,0.801 -0.703,0.585 -0.109,-0.322 0.58,-0.885 0.27,-1.24 -0.902,-1.04 -2.87,0.496 -10.3,2.54 -11,3.01 -0.145,0.101 -0.835,0.395 -1.53,0.653 -4.58,1.69 -9.68,7.23 -11.8,12.8 -0.669,1.76 -1.15,2.63 -1.61,2.92 -0.661,0.412 -0.661,0.412 -0.0902,-0.154 z m 10.9,0.131 c -0.055,-1.35 5.26,-8.42 7.67,-10.2 0.777,-0.574 0.777,-0.574 0.777,-0.009 0,0.388 -0.121,0.518 -0.388,0.416 -0.603,-0.232 -6.75,6.69 -6.75,7.61 -0.002,0.328 -1.3,2.5 -1.31,2.19 z m 12.2,-1.98 c 1.1,-4.97 3.39,-9.69 3.84,-7.89 0.0986,0.393 0.106,0.788 0.0154,0.878 -0.0901,0.0901 -0.164,-0.0343 -0.164,-0.277 0,-1.93 -2.95,4.27 -3.31,6.96 -0.251,1.86 -0.384,2.38 -0.618,2.38 -0.119,0 -0.0137,-0.922 0.234,-2.05 z m -6.56,1.38 c 1.02,-3.78 6.14,-13.3 7.47,-13.9 0.933,-0.425 1,-0.21 0.354,1.13 -0.479,0.99 -0.594,1.09 -0.748,0.651 -0.376,-1.07 -1.77,1.3 -6.58,11.2 -0.317,0.654 -0.544,1.07 -0.505,0.922 z m 66.1,-0.736 c -0.0838,-0.334 -0.0402,-1.2 0.0969,-1.92 0.249,-1.31 0.249,-1.31 0.213,0.606 -0.0388,2.07 -0.0777,2.24 -0.31,1.31 z m -63.2,-0.186 c 0.803,-2.3 1.36,-3.69 1.45,-3.61 0.122,0.122 -1.17,3.64 -1.42,3.86 -0.0917,0.0806 -0.104,-0.0318 -0.0284,-0.25 z m 7.65,-0.826 c -0.0876,-3.09 0.363,-3.47 1.51,-1.29 0.457,0.872 0.737,1.59 0.622,1.59 -0.115,0 -0.477,-0.55 -0.803,-1.22 -0.709,-1.46 -0.841,-1.39 -1.1,0.616 -0.196,1.53 -0.196,1.53 -0.23,0.308 z m 7.41,-2.67 c 0.259,-1.64 0.579,-3.39 0.713,-3.9 0.772,-2.95 1.45,-5.2 1.67,-5.55 0.294,-0.461 0.305,-0.512 -0.969,4.36 -0.494,1.89 -1.03,4.38 -1.18,5.54 -0.157,1.16 -0.379,2.2 -0.493,2.32 -0.115,0.115 0.003,-1.13 0.262,-2.77 z m -5.89,0.394 c -0.463,-1.2 -0.709,-3.25 -0.478,-4 0.119,-0.383 0.587,-1.89 1.04,-3.34 0.805,-2.59 2.23,-5.83 2.69,-6.11 0.258,-0.16 -0.325,1.36 -1.76,4.59 -1.48,3.33 -1.95,5.98 -1.43,7.99 0.437,1.68 0.411,2.07 -0.0574,0.859 z m 2.25,-0.219 c 0.0881,-0.229 0.407,-1.38 0.708,-2.56 0.301,-1.18 0.725,-2.45 0.942,-2.82 0.221,-0.379 0.326,-0.453 0.238,-0.17 -0.586,1.89 -1.46,5.22 -1.46,5.56 0,0.226 -0.132,0.411 -0.293,0.411 -0.161,0 -0.221,-0.188 -0.132,-0.417 z m -17.6,-1.63 c 0.138,-0.254 0.639,-0.819 1.11,-1.26 0.831,-0.764 0.826,-0.747 -0.141,0.463 -1.04,1.3 -1.41,1.6 -0.973,0.793 z m 69.9,0.288 c -0.381,-0.154 -0.455,-1.41 -0.0827,-1.41 0.136,0 0.18,-0.416 0.0976,-0.925 -0.0974,-0.6 -0.0452,-0.925 0.149,-0.925 0.192,0 0.299,0.616 0.299,1.72 0,0.945 -0.0297,1.71 -0.0661,1.7 -0.0363,-0.0115 -0.215,-0.0809 -0.396,-0.154 z m -60.8,-1.82 c -0.009,-0.155 0.497,-1.05 1.12,-1.98 0.627,-0.936 1.65,-2.71 2.28,-3.95 0.626,-1.24 1.54,-2.81 2.03,-3.5 0.492,-0.691 0.895,-1.36 0.895,-1.49 0,-0.432 1.25,-1.06 1.82,-0.908 0.788,0.206 0.7,0.563 -0.164,0.663 -0.825,0.0951 -1.62,1.4 -1.64,2.7 -0.0127,0.766 -0.0111,0.766 0.555,0.264 0.312,-0.277 0.11,0.139 -0.449,0.923 -0.56,0.785 -1.06,1.29 -1.12,1.12 -0.056,-0.168 -0.223,-0.23 -0.372,-0.138 -0.176,0.109 -0.208,-0.145 -0.0935,-0.725 0.217,-1.1 -0.062,-0.765 -1.2,1.43 -0.435,0.842 -1.29,2.28 -1.91,3.19 -0.613,0.915 -1.26,1.89 -1.43,2.17 -0.173,0.278 -0.322,0.379 -0.33,0.225 z m -4.36,-3.1 c 0.141,-0.369 2.49,-2.49 2.49,-2.24 0,0.0498 -0.598,0.671 -1.33,1.38 -0.731,0.709 -1.26,1.1 -1.17,0.865 z m 9.46,-0.33 c -0.165,-0.43 0.451,-1.74 1.15,-2.45 0.483,-0.489 0.469,0.467 -0.0243,1.65 -0.45,1.08 -0.898,1.4 -1.13,0.804 z m 6.14,-1.76 c 0.68,-1.64 0.82,-2.22 0.571,-2.37 -0.235,-0.149 -0.202,-0.21 0.119,-0.213 0.274,-0.002 0.774,-0.617 1.29,-1.59 0.861,-1.62 1.57,-2.06 1.56,-0.991 -0.003,0.414 -0.0703,0.49 -0.222,0.252 -0.352,-0.555 -1.7,1.79 -3.2,5.56 -0.332,0.836 -0.698,1.52 -0.814,1.52 -0.116,0 0.195,-0.975 0.69,-2.17 z m 57.4,-0.345 c 0.0861,-0.582 0.266,-1.24 0.4,-1.45 0.314,-0.511 -0.007,1.56 -0.328,2.11 -0.141,0.244 -0.168,-0.0108 -0.0721,-0.661 z m -66.9,-2.38 c 0.291,-0.231 0.826,-0.491 1.19,-0.578 0.363,-0.0864 0.839,-0.289 1.06,-0.451 0.344,-0.255 0.349,-0.233 0.0337,0.169 -0.2,0.254 -0.533,0.463 -0.74,0.463 -0.207,0 -0.758,0.184 -1.22,0.409 -0.777,0.376 -0.803,0.375 -0.317,-0.0115 z m 10.6,-2.47 c -0.0753,-0.288 -0.418,-0.577 -0.762,-0.642 -0.599,-0.113 -0.596,-0.12 0.0692,-0.155 0.811,-0.042 1.52,0.633 1.1,1.05 -0.185,0.185 -0.314,0.104 -0.408,-0.253 z m 65,-0.568 c 0.233,-1.31 0.592,-2.2 0.587,-1.45 -0.002,0.291 -0.172,0.945 -0.377,1.45 -0.374,0.925 -0.374,0.925 -0.21,0 z m -59,-0.544 c 0.581,-0.12 1.47,-0.211 1.98,-0.201 0.863,0.0166 0.845,0.0322 -0.264,0.229 -1.69,0.3 -3.19,0.275 -1.72,-0.0286 z m 50.7,-0.008 c 0.075,-0.206 0.351,-1.18 0.614,-2.16 0.263,-0.983 0.533,-1.73 0.601,-1.66 0.201,0.201 -0.766,3.84 -1.07,4.03 -0.164,0.101 -0.224,0.0181 -0.144,-0.201 z m -44.7,-0.249 c 0.218,-0.145 0.902,-0.395 1.52,-0.556 0.82,-0.214 1.12,-0.427 1.12,-0.79 0,-0.273 0.155,-0.497 0.345,-0.497 0.19,0 0.475,-0.327 0.633,-0.727 0.287,-0.727 0.287,-0.727 0.315,0.232 0.0337,1.15 -0.229,1.4 -2.22,2.08 -1.66,0.572 -2.34,0.673 -1.71,0.256 z m 53.1,-2.13 c -0.004,-0.0873 0.122,-0.533 0.282,-0.991 0.304,-0.871 -3.27,-8.84 -3.73,-8.31 -0.223,0.256 -1.71,4.08 -2.08,5.36 -0.148,0.509 -0.403,1.44 -0.566,2.08 -0.163,0.633 -0.357,1.09 -0.432,1.01 -0.193,-0.193 0.882,-3.9 1.78,-6.16 0.421,-1.05 0.766,-2.21 0.766,-2.58 0,-0.897 0.357,-1.06 0.931,-0.428 0.26,0.287 0.365,0.526 0.234,0.531 -0.132,0.005 -0.008,0.183 0.274,0.396 0.282,0.213 0.428,0.388 0.325,0.388 -0.103,0 0.0523,0.471 0.346,1.05 0.294,0.576 0.534,1.21 0.534,1.41 0,0.894 2.85,4.79 3.83,5.24 0.383,0.175 0.255,0.2 -0.463,0.0925 -0.832,-0.125 -0.992,-0.0726 -0.995,0.326 -0.003,0.371 -0.0543,0.395 -0.233,0.112 -0.185,-0.292 -0.285,-0.267 -0.517,0.132 -0.158,0.272 -0.291,0.423 -0.295,0.335 z m -61.1,-3.56 c -0.4,-0.217 -0.727,-0.517 -0.727,-0.666 0,-0.149 -0.0974,-0.211 -0.216,-0.138 -0.119,0.0736 -0.165,-0.218 -0.102,-0.648 0.0631,-0.43 0.22,-0.847 0.349,-0.927 0.129,-0.0795 0.252,-0.643 0.273,-1.25 0.032,-0.896 0.0617,-0.957 0.156,-0.32 0.0638,0.434 -0.0145,1.22 -0.174,1.76 -0.367,1.22 -0.207,1.63 0.85,2.15 0.466,0.232 0.728,0.425 0.583,0.428 -0.145,0.003 -0.591,-0.171 -0.991,-0.388 z m 46.3,-1.3 c 0,-0.29101 0.169,-0.885 0.37,-1.32 0.366,-0.793 0.366,-0.793 0.216,0.132 -0.188,1.16 -0.586,1.98002 -0.586,1.19 z m -9.62,-1.21 c -1.12,-0.74 -1.82,-1.5 -2.42,-2.62 -0.117,-0.218 0.404,0.283 1.16,1.11 1.34,1.47 2.32,1.95 3.79,1.86 0.252,-0.0164 0.526,0.0816 0.61,0.218 0.394,0.637 -1.96,0.209 -3.14,-0.57 z m 4.48,-0.275 c 2.45,-1.98 6.21,-2.99 6.15,-1.65 -0.0294,0.623 -0.0569,0.654 -0.151,0.168 -0.063,-0.327 -0.213,-0.595 -0.333,-0.595 -0.826,0 -3.8,1.2 -4.88,1.98 -1.61,1.15 -2.18,1.23 -0.783,0.103 z m 6.72,-1.34 c -0.0285,-0.488 0.545,-1.54 0.842,-1.54 0.185,-0.002 1.32,-0.402 2.52,-0.889 1.2,-0.486 2.18,-0.808 2.18,-0.714 0,0.186 -0.889,0.567 -3.24,1.39 -1.06,0.37 -1.64,0.748 -1.91,1.23 -0.209,0.385 -0.385,0.619 -0.391,0.52 z m -52.3,-1.55 c -1,-0.401 0.852,-2.18 2.11,-2.03 0.881,0.108 0.881,0.108 -0.117,0.151 -1.13,0.0479 -1.82,1.07 -1.22,1.79 0.344,0.414 0.114,0.44 -0.769,0.0861 z m 37.7,-1.06 c -0.302,-0.592 -0.497,-1.22 -0.433,-1.39 0.0659,-0.175 0.196,-0.08 0.299,0.218 0.1,0.291 0.35,0.915 0.555,1.39 0.529,1.22 0.234,1.07 -0.422,-0.218 z m 22.5,0.152 c 0.0647,-0.443 -0.115,-0.554 -1.11,-0.687 -1.19,-0.159 -1.19,-0.159 0.198,-0.198 1.43,-0.0409 1.68,0.187 1.11,1.02 -0.223,0.327 -0.258,0.303 -0.194,-0.132 z m -26.5,-9.81 c -0.897,-1.92 -1.02,-2.36 -0.432,-1.52 0.416,0.595 1.52,3.27 1.35,3.27 -0.0569,0 -0.471,-0.786 -0.921,-1.75 z m -44.8,0.378 c -0.281,-0.401 -0.322,-0.675 -0.135,-0.901 0.194,-0.233 0.0983,-0.445 -0.338,-0.752 -0.511,-0.36 -0.545,-0.467 -0.213,-0.674 0.522,-0.326 0.672,-0.128 1.15,1.52 0.424,1.45 0.223,1.8 -0.468,0.811 z m -1.81,-6.16 c -0.584,-1.9 -0.574,-2.17 0.0893,-2.53 1.03,-0.551 3.42,-0.915 3.42,-0.52 0,0.163 -0.119,0.223 -0.264,0.133 -0.145,-0.0898 -0.264,-0.0235 -0.264,0.147 0,0.179 -0.221,0.253 -0.522,0.174 -0.724,-0.189 -2.65,0.334 -2.65,0.721 0,0.174 0.189,0.872 0.42,1.55 0.231,0.678 0.377,1.36 0.324,1.52 -0.0526,0.158 -0.301,-0.38 -0.552,-1.2 z m 5.63,-0.68 c -1.09,-0.541 -2.13,-0.926 -2.31,-0.854 -0.211,0.081 -0.338,-0.0865 -0.338,-0.445 0,-0.438 0.116,-0.538 0.486,-0.42 0.267,0.0848 1.13,-0.127 1.92,-0.472 0.787,-0.344 2.02,-0.704 2.74,-0.8 0.72,-0.0955 1.83,-0.424 2.46,-0.73 1.9,-0.918 1.71,-0.11 -0.533,2.32 -1.01,1.09 -2.9,0.724 -2.18,-0.429 0.224,-0.362 -1.64,-0.137 -2.11,0.255 -0.567,0.47 -0.268,1.17 0.627,1.47 0.783,0.26 2.05,1.23 1.48,1.13 -0.14,-0.0234 -1.14,-0.485 -2.23,-1.03 z m 4.43,-1.99 c 0.801,-0.561 0.795,-1.28 -0.007,-1.01 -0.327,0.109 -1.07,0.281 -1.65,0.381 -0.58,0.1 -0.802,0.198 -0.491,0.216 0.311,0.018 0.635,0.212 0.719,0.43 0.195,0.509 0.691,0.504 1.43,-0.015 z m -1.39,2.74 c 1.31,-0.744 3.87,-3.28 4.58,-4.54 0.428,-0.759 1.03,-1.67 1.35,-2.03 0.312,-0.357 0.799,-1.04 1.08,-1.51 0.308,-0.515 0.728,-0.859 1.05,-0.859 0.433,0 0.525,0.161 0.493,0.859 -0.0369,0.8 -0.0472,0.809 -0.15,0.132 -0.189,-1.25 -1.41,0.167 -3.76,4.36 -0.468,0.836 -0.99,1.52 -1.16,1.52 -0.171,9e-5 -0.993,0.535 -1.83,1.19 -0.833,0.654 -1.67,1.19 -1.85,1.18 -0.184,-0.004 -0.0974,-0.143 0.193,-0.308 z m 34.6,-5.07 c -0.288,-1.24 0.0761,-3.63 0.64,-4.19 0.215,-0.215 0.216,-0.0503 0.005,0.614 -0.158,0.499 -0.267,1.77 -0.242,2.82 0.0531,2.22 -0.029,2.37 -0.404,0.754 z m -23.9,-0.13 c 0,-0.264 2.35,-0.678 2.57,-0.454 0.203,0.203 -1.15,0.688 -1.93,0.688 -0.354,0 -0.644,-0.105 -0.644,-0.234 z m -16.7,-1.25 c 1.09,-0.365 2.68,-0.713 3.54,-0.773 1.85,-0.132 3.41,-0.883 4.54,-2.18 0.789,-0.913 1.7,-1.07 1.7,-0.298 0,0.22 -0.111,0.213 -0.396,-0.0241 -0.38,-0.315 -0.441,-0.261 -0.506,0.45 -0.0509,0.559 -4.15,2.45 -5.31,2.46 -0.581,0.002 -1.83,0.239 -2.78,0.528 -2.48,0.758 -3.14,0.627 -0.793,-0.158 z m 14.6,0.247 c -0.655,-0.264 -0.311,-0.618 0.602,-0.618 0.77,0 1.14,-0.218 2.11,-1.26 0.974,-1.03 1.23,-1.19 1.44,-0.859 0.399,0.608 0.317,0.96 -0.0931,0.4 -0.339,-0.464 -0.407,-0.425 -1.1,0.628 -0.942,1.42 -2.06,2.07 -2.96,1.71 z m 5.22,-1.38 c 0,-0.13 0.169,-0.301 0.376,-0.38 0.207,-0.0793 0.846,-0.835 1.42,-1.68 1.79,-2.62 2.72,-3.07 2.68,-1.27 -0.0116,0.484 -0.033,0.478 -0.252,-0.0661 -0.376,-0.934 -0.692,-0.729 -2.04,1.32 -0.692,1.05 -1.38,2 -1.52,2.11 -0.362,0.266 -0.661,0.25 -0.661,-0.0337 z m 14.5,-1.03 c 0,-0.406 -0.139,-0.487 -0.661,-0.388 -0.712,0.136 -0.937,-0.375 -0.277,-0.628 0.266,-0.102 0.312,-0.282 0.151,-0.586 -0.128,-0.241 -0.299,-0.653 -0.38,-0.914 -0.0842,-0.27 -0.349,-0.441 -0.614,-0.396 -0.327,0.055 -0.49,-0.119 -0.545,-0.582 -0.143,-1.19 -0.269,-1.37 -0.794,-1.08 -0.359,0.192 -0.686,0.127 -1.26,-0.251 -1.05,-0.694 -1.33,-0.652 -2.28,0.345 -0.873,0.923 -0.755,0.46 0.135,-0.529 0.616,-0.684 1.55,-0.775 2.03,-0.198 0.423,0.51 0.903,0.504 1.34,-0.0179 0.306,-0.369 0.38,-0.348 0.672,0.198 0.18,0.337 0.397,0.583 0.481,0.547 0.405,-0.174 0.653,-0.0199 0.73,0.456 0.0645,0.399 0.178,0.46 0.481,0.259 0.347,-0.23 0.34,-0.306 -0.0587,-0.612 -0.9,-0.69 -0.84,-3.16 0.0899,-3.71 1.28,-0.756 2.35,-0.984 2.52,-0.538 0.186,0.486 0.719,0.477 2.19,-0.0335 1.3,-0.453 3.14,-0.294 3.36,0.292 0.25,0.652 -0.989,1.98 -1.79,1.92 -0.781,-0.0595 -0.775,-0.474 0.006,-0.474 0.518,0 1.35,-0.786 1.35,-1.28 0,-0.433 -1.23,-0.386 -2.91,0.111 -0.931,0.276 -1.88,0.367 -2.76,0.264 -1.76,-0.207 -2.85,0.479 -2.21,1.39 0.403,0.575 0.809,0.516 0.579,-0.0834 -0.203,-0.528 3.83,-0.941 4.57,-0.468 0.17,0.108 -0.526,0.211 -1.55,0.23 -1.36,0.0241 -1.97,0.152 -2.29,0.479 -0.408,0.418 -0.375,0.435 0.512,0.274 1.46,-0.267 3.15,0.276 3.11,1 -0.018,0.322 0.11,0.94 0.285,1.37 0.223,0.552 0.232,0.816 0.0317,0.883 -0.157,0.0524 -0.453,0.263 -0.658,0.468 -0.205,0.205004 -0.5,0.373 -0.656,0.373 -0.156,0 -0.0453,-0.237996 0.245,-0.529 1,-1 0.434,-1.98 -1.52,-2.62 -1.4,-0.461 -1.67,-0.24 -0.711,0.584 0.791,0.68 0.705,1.25 -0.188,1.25 -0.373,0 -0.494,0.124 -0.389,0.396 0.177,0.46 -0.24,0.54 -0.513,0.0982 -0.123,-0.2 -0.273,-0.14 -0.453,0.182 -0.219,0.391004 -0.104,0.618 0.621,1.22 2.07,1.72 5.52,0.208 6.37,-2.8 0.169,-0.597 0.585,-1.46 0.924,-1.93 0.339,-0.463 0.617,-1.03 0.617,-1.26 0,-0.53 0.76,-2.38 0.914,-2.22 0.164,0.164 -0.99,3.34 -1.66,4.59 -0.314,0.579 -0.571,1.24 -0.571,1.46 0,1.56 -3,3.58 -5.04,3.39 -0.549,-0.0523 -0.977,0.0112 -0.952,0.141 0.0252,0.13 -0.103,0.291 -0.285,0.357 -0.193,0.0706 -0.33,-0.0933 -0.33,-0.393 z m -8.52,-1.77 c 0.527,-0.948 1.07,-1.72 1.21,-1.72 0.141,0 0.0731,0.208 -0.151,0.463 -0.2241,0.255 -0.657,0.960004 -0.962,1.57 -0.306,0.608 -0.669,1.18 -0.807,1.26 -0.138,0.08 0.179,-0.62 0.706,-1.57 z m -28.5,-0.584 c -0.255,-0.0667 -0.463,-0.37 -0.463,-0.676 0,-0.544 0.0155,-0.542 0.727,0.0855 0.4,0.352 0.776,0.671 0.837,0.707 0.166,0.0995 -0.575,0.0214 -1.1,-0.116 z m 3.77,-0.416 c 0.8,-0.31 1.54,-0.689 1.65,-0.842 0.131,-0.184 0.287,-0.144 0.458,0.118 0.411,0.626 0.315,0.815 -0.329,0.653 -0.329,-0.0825 -1.04,0.0342 -1.58,0.259 -0.539,0.225 -1.13,0.402004 -1.32,0.392004 -0.186,-0.0094 0.315,-0.271004 1.11,-0.581004 z m 41.6,-0.866 c 0.0858,-0.223 0.352,-1.09 0.591,-1.92 0.239,-0.831 0.667,-1.84 0.95,-2.24 0.514,-0.729 0.488,-1.82 -0.0677,-2.84 -0.175,-0.319 -0.263,-0.272 -0.455,0.243 -0.449,1.21 -0.576,0.0922 -0.21,-1.83 0.511,-2.68 3.14,-5.27 5.4,-5.29 0.385,-0.0046 0.931,-0.183 1.21,-0.396 0.282,-0.213 0.877,-0.39 1.32,-0.391 0.445,-0.0019 1.75,-0.303 2.89,-0.669 1.15,-0.366 2.15,-0.602 2.22,-0.525 0.0772,0.0772 -0.0141,0.14 -0.203,0.14 -0.189,0 -0.744,0.425 -1.23,0.944 -0.49,0.519 -0.89,0.824 -0.89,0.676 0,-0.147 0.119,-0.341 0.264,-0.431 0.476,-0.294 0.295,-0.695 -0.198,-0.44 -0.254,0.132 -1.39,0.442 -2.51,0.689 -1.79,0.393 -2.1,0.548 -2.45,1.22 -0.313,0.605 -0.581,0.774 -1.22,0.774 -0.469,0 -0.964,0.193 -1.15,0.448 -0.18,0.247 -0.848,0.574 -1.48,0.727 -1.04,0.25 -1.16,0.361 -1.18,1.07 -0.0143,0.436 -0.0737,0.971 -0.132,1.19 -0.0733,0.274 0.0576,0.369 0.422,0.309 0.291,-0.0484 1.36,-0.126 2.38,-0.173 1.85,-0.0854 1.85,-0.0854 0.132,0.088 -2.36,0.239 -3.09,1.43 -1.96,3.24 0.0974,0.158 -0.0829,0.638 -0.4,1.07 -0.318,0.43 -0.618,0.983 -0.667,1.23 -0.153,0.767 -1.23,3.49 -1.38,3.49 -0.0778,0 -0.0713,-0.183 0.0145,-0.406 z m -55.2,-1.49 c -1.84,-0.669 -3.11,-5.82 -2.3,-9.32 0.92,-3.99 4.96,-8.52 6.36,-7.12 0.263,0.263 -0.656,2.45 -1.18,2.8 -0.563,0.383 -0.439,-0.346 0.138,-0.814 0.381,-0.308 0.536,-0.641 0.428,-0.92 -0.535,-1.39 -3.88,1.11 -3.88,2.9 0,0.25 -0.187,0.662 -0.416,0.915 -0.229,0.253 -0.444,0.619 -0.477,0.814 -0.0333,0.194 -0.193,0.77 -0.355,1.28 -0.605,1.9 -0.676,3.44 -0.184,3.99 0.266,0.294 0.33,0.505 0.152,0.505 -0.429,0 -0.38,0.94 0.098,1.86 0.69,1.33 1.27,0.794 0.643,-0.595 -0.181,-0.4 -0.19,-0.968 -0.0265,-1.66 0.249,-1.06 0.249,-1.06 0.275,0.0746 0.0522,2.23 0.993,3.54 2.98,4.16 1.14,0.357 1.14,0.357 0.245,0.375 -0.582,0.0114 -1.22,-0.224 -1.8,-0.666 -1.2,-0.912 -1.79,-0.716 -1.23,0.406 0.221,0.444 0.565,0.806 0.764,0.806 0.199,0 0.435,0.119 0.525,0.264 0.0898,0.145 0.127,0.255 0.0817,0.243 -0.0449,-0.0115 -0.419,-0.144 -0.831,-0.294 z m 3.85,-1.37 c 0.22,-0.22 0.638,-0.338 0.929,-0.262 0.293,0.0766 1.13,-0.166 1.88,-0.544 1.45,-0.736 1.89,-0.833 1.89,-0.418 0,0.145 -0.163,0.264 -0.363,0.264 -0.2,0 -0.883,0.224 -1.52,0.498 -1.68,0.723 -3.35,0.997 -2.82,0.462 z m 58.6,-6.1 c 0.485,-0.269 0.736,-0.746 0.997,-1.89 0.391,-1.72 0.947,-2.5 1.77,-2.47 0.474,0.0179 0.453,0.0577 -0.146,0.277 -0.739,0.271 -1.15,1.04 -1.43,2.68 -0.162,0.933 -0.918,1.79 -1.56,1.77 -0.149,-0.0052 0.0203,-0.171 0.377,-0.369 z m -61.8,-2.72 c -0.0359,-0.682 0.484,-1.93 0.805,-1.93 0.324,0 0.272,0.339 -0.143,0.932 -0.201,0.287 -0.425,0.759 -0.498,1.05 -0.123,0.489 -0.136,0.485 -0.164,-0.0536 z m 67.1,-5.77 c -0.0376,-0.764 0.702,-1.71 1.34,-1.71 0.828,0 2.43,-1.73 2.25,-2.43 -0.159,-0.608 0.137,-1.35 0.88,-2.2 0.58,-0.665 0.885,-3.1 0.447,-3.56 -0.226,-0.238 -0.15,-0.233 0.269,0.02 1.28,0.775 0.736,-1.02 -1.07,-3.51 -0.566,-0.779 -1.07,-1.93 -1.36,-3.12 -0.662,-2.7 -3.83,-5.47 -3.83,-3.35 0,0.557 -0.002,0.557 -0.412,-0.0286 -0.597,-0.853 -0.0953,-1.35 0.808,-0.809 0.145,0.0878 0.646,0.242 1.11,0.342 1.21,0.259 2.35,1.66 2.57,3.18 0.253,1.69 0.974,3.27 1.95,4.28 1.65,1.72 2.11,9.6 0.549,9.6 -0.123,0 -0.116,-0.282 0.0145,-0.626 0.425,-1.12 0.804,-3.65 0.642,-4.3 -0.232,-0.926 -0.629,-0.764 -0.629,0.257 0,0.546 -0.302,1.33 -0.788,2.05 -0.433,0.64 -0.79,1.43 -0.793,1.75 -0.006,0.754 -1.16,2.04 -2.5,2.79 -0.611,0.342 -1.12,0.858 -1.23,1.24 -0.152,0.544 -0.188,0.566 -0.21,0.123 z m -62.4,-1.99 c 0,-0.849 5.24,-7.4 7.65,-9.57 1.51,-1.36 6.35,-3.86 8.77,-4.54 1.47,-0.41 2.07,-0.513 5.12,-0.886 2.45,-0.3 7.37,-0.232 8.09,0.111 0.349,0.168 1.73,0.636 3.08,1.04 2.53,0.761 2.8,0.958 1.93,1.42 -0.863,0.462 -1.56,0.331 -1.65,-0.31 -0.369,-2.55 -13.6,-2.62 -19.1,-0.103 -4.72,2.18 -4.22,1.8 -9.32,7.03 -0.641,0.656 -1.16,1.32 -1.16,1.48 0,0.158 -0.387,0.712 -0.859,1.23 -1.33,1.46 -2.14,2.59 -2.14,3 0,0.202 -0.0991,0.368 -0.22,0.368 -0.121,0 -0.22,-0.125 -0.22,-0.279 z m 5.65,-4.66 c 0.605,-0.652 0.964,-1.26 0.876,-1.49 -0.102,-0.266 0.0734,-0.431 0.559,-0.524 1,-0.193 1,-0.187 -0.817,1.55 -0.904,0.864 -1.18,1.07 -0.618,0.466 z m 60.1,-5.13 c -0.45,-0.535 -0.684,-1.13 -0.684,-1.74 0,-0.507 -0.133,-1.18 -0.295,-1.5 -0.268,-0.525 -0.257,-0.541 0.129,-0.175 0.233,0.222 0.501,0.995 0.594,1.72 0.0978,0.757 0.399,1.57 0.71,1.91 0.297,0.327 0.47,0.595 0.385,0.595 -0.085,0 -0.463,-0.366 -0.839,-0.813 z m -29.5,-0.926 c -1.19,-0.366 -1.19,-0.366 0.0703,-0.27 0.693,0.0525 1.33,-0.0149 1.41,-0.15 0.0885,-0.143 0.305,-0.118 0.521,0.0616 0.473,0.393 1.17,0.131 1.17,-0.44 0,-0.562 -3.68,-0.408 -4.39,0.184 -0.389,0.321 -0.431,0.317 -0.318,-0.0258 0.128,-0.388 0.679,-0.626 2.14,-0.92 0.4,-0.0808 0.727,-0.306 0.727,-0.499 0,-0.623 5.94,-5.04 6.4,-4.76 0.121,0.075 0.15,0.25 0.0642,0.389 -0.086,0.139 -0.188,1 -0.226,1.92 -0.0383,0.917 -0.155,1.81 -0.26,1.98 -0.233,0.376 -0.952,0.409 -0.952,0.0436 0,-0.145 0.119,-0.264 0.264,-0.264 0.145,0 0.264,-0.178 0.264,-0.396 0,-0.218 0.119,-0.396 0.264,-0.396 0.405,0 0.314,-1.48 -0.112,-1.83 -0.441,-0.366 -2.25,0.433 -2.84,1.25 -0.191,0.266 -0.556,0.561 -0.81,0.656 -0.71,0.265 -0.549,0.995 0.288,1.31 0.696,0.263 0.72,0.317 0.33,0.745 -0.231,0.254 -0.634,0.77 -0.895,1.15 -0.541,0.781 -1.23,0.841 -3.09,0.268 z m -8.66,-1.89 c -0.472,-0.0586 -0.859,-0.222 -0.859,-0.362 0,-0.421 0.772,-0.586 1.18,-0.251 0.207,0.172 0.711,0.413 1.12,0.535 0.856,0.257 0.265,0.289 -1.44,0.0775 z m 13.4,-0.477 c -0.0291,-0.441 0.776,-1.45 1.16,-1.45 0.194,0 0.422,-0.178 0.505,-0.396 0.0837,-0.218 0.293,-0.396 0.466,-0.396 0.42,0 -0.495,1 -1.09,1.19 -0.251,0.0796 -0.584,0.41 -0.74,0.734 -0.156,0.324 -0.292,0.467 -0.302,0.317 z m 6.46,-5.4 c -0.433,-0.173 -0.268,-0.289 0.911,-0.643 1.74,-0.523 2.51,-0.145 0.995,0.489 -1.07,0.448 -1.15,0.454 -1.91,0.154 z"
                 fill="#735e49"
                 id="path6"
                 sodipodi:nodetypes="cccsscsscccccccccccccccscccccccscscccccccccccccccccccccscccccccccccccccccccccsccssccccccccscssccccsccsccccccccccccccscccccccccccccccscccccccccccsccccccccccccccccccccccccccssccccccccccccsccsscsccccccccscccccccsccsccssccccccccccsccccccscccccccccccsccccccccccccscccccccccccscscsscccccscccccccccccccsscccccccsccccccccccccccccscccccscccccccsccccccccccccccccccccccccccccccccccccccsscccccccccccsscccsccccccsccsccccccsscscccscccccccccccccccccccccccscsccccsccccccccccsccccscccsscccsccccccccscccccccssccccccccccccscccccsccccccscccccsccsccscccccccccccccscsscccccccccsccccsccccccscccsccccsssscccccccccscccccscscsccccccc" />
            <path
                 d="m 541.74846,156.89355 c 0.0331,-1.44 0.0331,-1.44 0.234,-0.251 0.11,0.654 0.0954,1.3 -0.0331,1.44 -0.137,0.147 -0.22,-0.344 -0.201,-1.19 z m 49.2,0.74 c 0.0776,-1.48 0.437,-2.19 0.401,-0.795 -0.0198,0.762 -0.125,1.39 -0.234,1.39 -0.109,10e-4 -0.184,-0.266 -0.167,-0.593 z m -82,-1.32 c 0.407,-0.909 0.955,-2.16 1.22,-2.78 0.894,-2.12 0.659,-0.951 -0.285,1.41 -1.25,3.13 -1.2,3.02 -1.45,3.02 -0.122,0 0.111,-0.743 0.519,-1.65 z m 18.1,1.22 c 0.0909,-0.237 0.296,-0.949 0.455,-1.58 0.173,-0.689 0.402,-1.08 0.569,-0.98 0.173,0.107 0.215,0.006 0.11,-0.268 -0.207,-0.54 0.0472,-1.28 0.371,-1.08 0.13,0.0804 0.237,0.265 0.237,0.411 0,0.146 -0.119,0.191 -0.264,0.101 -0.145,-0.0897 -0.237,0.0519 -0.204,0.315 0.082,0.652 -0.891,3.52 -1.19,3.52 -0.134,0 -0.17,-0.194 -0.0791,-0.431 z m 10.3,-2.44 c 0.104,-0.168 0.0668,-0.305 -0.082,-0.305 -0.496,0 -0.906,-1.08 -0.539,-1.42 0.253,-0.234 0.291,-0.197 0.165,0.161 -0.0895,0.254 -0.0517,0.463 0.0839,0.463 0.431,0 0.835,1 0.49,1.21 -0.19,0.117 -0.234,0.0732 -0.117,-0.116 z m 5.6,-4.76 c -0.107,-0.174 -0.111,-0.7 -0.008,-1.17 0.176,-0.803 0.2,-0.818 0.408,-0.258 0.256,0.691 -0.0906,1.93 -0.4,1.43 z m 48.8,-4.27 c -0.0105,-1.54 0.0473,-1.86 0.258,-1.42 0.183,0.377 0.187,1.03 0.0135,1.98 -0.258,1.42 -0.258,1.42 -0.272,-0.561 z m -64.1,0.0236 c 0.552,-0.638 2.51,-2.26 2.51,-2.08 0,0.0572 -0.684,0.686 -1.52,1.4 -0.836,0.711 -1.28,1.02 -0.991,0.682 z m 7.8,-1.33 c 0,-0.608 0.342,-1.11 0.537,-0.798 0.134,0.217 0.436,-0.0346 0.923,-0.771 0.398,-0.602 0.781,-1.09 0.851,-1.09 0.0701,0 -0.0829,0.321 -0.34,0.713 -0.319,0.487 -0.371,0.746 -0.163,0.815 0.168,0.0559 0.296,0.359 0.286,0.674 -0.0138,0.426 -0.0645,0.47 -0.198,0.171 -0.234,-0.524 -0.695,-0.501 -1.36,0.069 -0.295,0.253 -0.537,0.352 -0.537,0.22 z m 6.65,-1.34 c 0.152,-0.436 0.384,-0.793 0.515,-0.793 0.309,0 0.301,0.102 -0.0683,0.913 -0.428,0.94 -0.783,0.845 -0.447,-0.12 z m -11,-0.105 c 0.425,-0.357 1.26,-0.849 1.85,-1.09 0.592,-0.244 1.31,-0.569 1.61,-0.723 0.466,-0.246 0.487,-0.229 0.18,0.142 -0.192,0.232 -0.684,0.496 -1.09,0.586 -0.41,0.0901 -1.32,0.518 -2.03,0.95 -1.06,0.651 -1.15,0.675 -0.511,0.137 z m 75.7,-1.06 c 0,-0.117 0.166,-0.884 0.369,-1.7 0.203,-0.821 0.444,-1.82 0.536,-2.23 0.0921,-0.406 0.271,-0.674 0.397,-0.596 0.255,0.158 -0.672,4.1 -1.06,4.49 -0.135,0.138 -0.245,0.155 -0.245,0.0382 z m -83.5,-1.09 c 0.8,-0.506 1.75,-0.987 2.11,-1.07 0.363,-0.0826 0.958,-0.281 1.32,-0.441 0.362,-0.16 1.31,-0.379 2.11,-0.486 0.8,-0.107 2.29,-0.44 3.3,-0.74 2.77,-0.818 4.1,-0.677 4.1,0.436 0,0.28 -0.098,0.265 -0.429,-0.0667 -0.302,-0.302 -0.675,-0.38 -1.26,-0.265 -6.43,1.28 -9.44,2.09 -11.2,3.04 -1.59,0.85 -1.62,0.58 -0.0527,-0.412 z m 30,-2.77 c -0.847,-0.151 -0.91,-0.196 -0.315,-0.226 1.54,-0.0778 3.16,-0.639 3.29,-1.14 0.108,-0.412 0.197,-0.438 0.539,-0.158 0.353,0.289 0.389,0.253 0.257,-0.259 -0.119,-0.46 -0.0409,-0.595 0.345,-0.595 2.19,0 1.94,-3.93 -0.249,-4.01 -1.05,-0.0362 -1.09,-0.0581 -0.316,-0.153 1.49,-0.181 2.66,0.142 2.66,0.73 0,0.967 -1.13,3.96 -1.49,3.96 -0.198,0 -0.359,0.214 -0.359,0.475 0,0.333 -0.375,0.597 -1.26,0.883 -0.691,0.225 -1.43,0.47 -1.65,0.544 -0.218,0.0743 -0.872,0.0504 -1.45,-0.053 z m -6.06,-5.33 c -1.03,-0.558 -1.32,-0.865 -1.39,-1.46 -0.0817,-0.75 -0.0817,-0.75 0.282,0.0639 0.691,1.54 4.6,2.16 6.85,1.08 0.553,-0.264 1.44,-0.534 1.98,-0.6 0.978,-0.119 0.978,-0.119 -0.0796,0.237 -0.581,0.196 -1.34,0.509 -1.69,0.696 -1.42,0.762 -4.53,0.75 -5.96,-0.0236 z m 60.6,-1.19 c -0.537,-0.816 -0.977,-1.65 -0.977,-1.85 0,-0.204 -0.24,-0.841 -0.534,-1.42 -0.294,-0.576 -0.423,-1.05 -0.287,-1.05 0.136,0 0.571,0.862 0.966,1.92 0.396,1.05 1.01,2.31 1.37,2.79 0.36,0.48 0.603,0.925 0.544,0.984 -0.059,0.059 -0.547,-0.56 -1.08,-1.38 z m -13.9,-1.12 c 0,-1.26 0.914,-3.69 1.26,-3.34 0.174,0.174 -0.804,3.59 -1.03,3.59 -0.128,0 -0.232,-0.11 -0.232,-0.244 z m -47.6,-2 c -0.0396,-0.291 -0.0841,-0.697 -0.0989,-0.903 -0.0148,-0.206 -0.194,-0.431 -0.398,-0.499 -0.27,-0.09 -0.32,0.0123 -0.181,0.375 0.152,0.4 0.124,0.433 -0.143,0.168 -0.183,-0.182 -0.755,-0.335 -1.27,-0.341 -0.888,-0.0104 -0.856,-0.0403 0.606,-0.557 1.91,-0.676 2.22,-0.479 1.83,1.15 -0.161,0.671 -0.302,0.92 -0.345,0.607 z m 35.2,-1.26 c -0.39,-0.488 -1.18,-2.08 -1.08,-2.18 0.0475,-0.0475 0.413,0.499 0.812,1.21 0.701,1.26 0.809,1.65 0.263,0.97 z m -39.7,-0.752 c 0,-0.309 0.209,-0.608 0.473,-0.677 0.26,-0.068 0.587,-0.383 0.727,-0.701 0.14,-0.317 0.473,-0.618 0.742,-0.669 0.324,-0.061 0.114,0.271 -0.624,0.987 -1.11,1.08 -1.11,1.08 -0.488,1.33 0.621,0.249 0.62,0.25 -0.103,0.267 -0.567,0.0131 -0.727,-0.105 -0.727,-0.537 z m 63,-0.262 c -0.676,-0.615 -0.962,-0.732 -1.23,-0.506 -0.282,0.234 -0.326,0.183 -0.213,-0.249 0.178,-0.681 0.49,-0.689 1.06,-0.0286 0.243,0.283 0.542,0.453 0.665,0.377 0.123,-0.076 0.191,-0.0189 0.151,0.127 -0.0399,0.146 0.165,0.448 0.456,0.672 0.291,0.224 0.41,0.407 0.264,0.407 -0.145,2.6e-4 -0.66,-0.359 -1.14,-0.8 z m -7.31,-0.203 c 0.582,-0.27 1.36,-0.568 1.72,-0.662 0.363,-0.0941 0.183,0.0498 -0.399,0.32 -0.582,0.27 -1.36,0.568 -1.72,0.662 -0.363,0.0941 -0.183,-0.0498 0.399,-0.32 z m -56.7,-2.02 c -0.207,-0.249 -0.273,-0.77 -0.176,-1.39 0.116,-0.738 0.0875,-0.872 -0.111,-0.526 -0.157,0.273 -0.58,0.463 -1.03,0.463 -0.912,0 -1.28,-0.424 -0.559,-0.652 0.55,-0.174 0.914,-0.835 0.674,-1.22 -0.299,-0.485 -1.73,-0.22 -2.98,0.552 -0.709,0.436 -1.57,0.788 -1.92,0.781 -0.51,-0.009 -0.447,-0.0776 0.325,-0.353 0.526,-0.188 1.36,-0.585 1.85,-0.881 2.57,-1.55 5.22,-0.788 4.36,1.26 -0.638,1.52 0.446,2.62 1.42,1.44 0.181,-0.218 0.516,-0.396 0.744,-0.396 0.25,0 0.0581,0.264 -0.48,0.661 -1.03,0.756 -1.64,0.833 -2.12,0.262 z m 39.1,-0.0916 c -0.496,-0.928 -1.87,-4.89 -1.74,-5.02 0.0717,-0.0717 0.13,-0.0595 0.13,0.0272 0,0.0867 0.467,1.36 1.04,2.82 0.966,2.48 1.19,3.33 0.569,2.17 z m -46.9,-4.75 c -0.273,-0.681 -0.825,-1.59 -1.23,-2.03 -0.62,-0.672 -3.95,-7.6 -3.95,-8.22 0,-0.114 -0.487,-0.784 -1.08,-1.49 -1.04,-1.24 -1.21,-2.06 -0.421,-2.06 0.533,0 1.1,0.745 1.77,2.31 0.325,0.763 0.707,1.39 0.851,1.39 0.35,0 0.002,-1.34 -0.49,-1.88 -0.544,-0.604 -0.693,-1.7 -0.278,-2.04 0.278,-0.23 0.328,-0.142 0.247,0.431 -0.25,1.76 0.286,1.83 4.02,0.474 1.87,-0.677 3.57,-1.2 3.78,-1.15 0.213,0.0426 -0.997,0.532 -2.69,1.09 -1.693,0.558 -3.02,1.1 -2.95,1.22 0.0702,0.114 -0.166,0.34 -0.525,0.504 -0.932,0.425 -0.754,1.62 0.727,4.89 0.493,1.09 0.521,1.31 0.194,1.51 -0.317,0.198 -0.278,0.314 0.224,0.667 0.447,0.315 0.534,0.516 0.329,0.763 -0.204,0.246 -0.0704,0.596 0.501,1.31 0.753,0.948 1.79,3.22 1.57,3.44 -0.0596,0.0596 -0.332,-0.449 -0.605,-1.13 z m 42.8,-5.09 c -0.773,-1.49 -1.96,-5.81 -2.09,-7.6 -0.147,-2.01 -0.0978,-1.87 0.824,2.33 0.367,1.67 0.945,3.72 1.28,4.56 0.666,1.64 0.657,2.01 -0.0159,0.712 z m -43.3,-7.14 c 0.332,-0.276 2.48,-0.812 2.63,-0.658 0.0828,0.0828 0.005,0.15 -0.173,0.15 -0.178,0 -0.25,0.119 -0.161,0.264 0.171,0.277 0.0738,0.301 -1.51,0.36 -0.538,0.0202 -0.895,-0.0325 -0.793,-0.117 z m -7.53,-2.3 c -0.423,-0.269 -1.14,-2.41 -0.862,-2.58 0.122,-0.0754 0.401,0.194 0.62,0.598 0.58,1.07 0.52,0.192 -0.131,-1.92 -0.401,-1.299993 -0.468,-1.829993 -0.246,-1.969993 0.171,-0.106 -0.254,-0.331 -0.969,-0.513 -1.61,-0.412 -3.71,-1.33 -4.1,-1.79 -0.184,-0.222 0.181,-0.151 0.974,0.189 0.697,0.299 1.81,0.665 2.48,0.815 1.9,0.423 2.32,0.832 2.92,2.819993 1.07,3.58 1.44,3.83 4.24,2.98 2.36,-0.72 2.91,-0.63 0.758,0.124 -3.16,1.11 -3.27,1.1 -4.04,-0.0368 -0.709,-1.04 -0.878,-0.904 -0.407,0.336 0.358,0.943 -0.378,1.51 -1.25,0.957 z m 15,-0.741 c 1.56,-0.49 2.14,-1.06 2.14,-2.12 0,-0.478 0.119,-0.942 0.264,-1.03 0.39,-0.241 0.321,0.806 -0.123,1.87 -0.407,0.975 -1.68,1.72 -2.84,1.67 -0.401,-0.0174 -0.213,-0.148 0.559,-0.391 z m 4.94,-0.904 c 0.102,-0.363 0.4,-0.936 0.663,-1.27 0.369,-0.473 0.444,-0.897 0.329,-1.86999 -0.179,-1.510003 0.378,-2.340003 1.25,-1.870003 0.554,0.296 0.647,0.826 0.271,1.53 -0.146,0.272003 -0.131,0.993993 0.0374,1.849993 0.357,1.8 0.87,1.74 1.86,-0.215 0.924,-1.829993 2.57,-1.33999 2.57,0.773 0,1.45 2.21,-0.903 3.27,-3.479993 0.429,-1.04 0.664,-1.18 1.16,-0.688 0.228,0.228 0.141,0.431 -0.35,0.818 -0.36,0.283 -1.12,1.190003 -1.68,2.009993 -1.56,2.28 -2.65,2.97 -2.67,1.68 -0.0115,-1.27 -0.503,-1.26 -1.71,0.0156 -1.67,1.77 -3.08,1.86 -2.85,0.175 0.201,-1.5 -0.81,-1.41 -1.72,0.156 -0.4,0.684 -0.553,0.824 -0.433,0.396 z m -8.87,0.0138 c 0.218,-0.149 0.669,-0.272 1,-0.274 0.888,-0.006 2.44,-0.881 3.48,-1.96 0.844,-0.879 1.86,-1.269993 1.86,-0.709 0,0.132 -0.221,0.182 -0.492,0.111 -0.334,-0.0873 -0.737,0.167 -1.26,0.791 -0.42,0.506 -1.24,1.16 -1.82,1.45 -1.15,0.574 -3.48,1.07 -2.78,0.596 z m -1.42,-1.28 c 0.665,-0.539 1.02,-1.21 1.23,-2.319993 0.166,-0.878 -0.204,-1.77 -0.54,-1.3 -0.256,0.358 -3.12,1.44 -3.82,1.44 -1.16,0 -2.25,-1.58 -2.6,-3.78 -0.372,-2.31 -0.327,-2.28 -2.15,-1.35 -0.746,0.378 -1.58,0.621 -1.88,0.544 -0.292,-0.0764 -0.712,0.0443 -0.937,0.27 -2.6,2.6 -5.42,-2.64 -3.73,-6.95 1.61,-4.1 2.09,-5.09 2.6,-5.25 0.962,-0.307 1.78,-3.05 0.914,-3.05 -0.257,0 -0.0829,-0.307 0.487,-0.859 0.488,-0.472 1.34,-1.39 1.89,-2.05 1.01,-1.19 1.01,-1.19 0.19,0.0476 -2.19,3.31 -0.0141,2.1 4.4,-2.45 3.8,-3.92 5.04,-4.84 10,-7.44 1.19,-0.621 4.43,-1.36 6.2,-1.4 0.8,-0.0214 1.65,-0.128 1.9,-0.236 0.246,-0.108 1.73,-0.0137 3.3,0.21 4.72,0.672 7.69,0.749 8.23,0.211 0.354,-0.354 0.606,-0.397 1.17,-0.197 0.552,0.194 0.8,0.16 1.05,-0.143 0.182,-0.218 0.806,-0.726 1.39,-1.13 1.06,-0.732 1.06,-0.732 0.0661,0.147 -0.545,0.484 -0.991,1.03 -0.991,1.2 0,0.179 -0.327,0.391 -0.727,0.472 -3.06,0.618 -2.71,1.36 0.889,1.88 0.969,0.14 1.14,0.0798 1.59,-0.554 0.274,-0.392 0.885,-1.12 1.36,-1.61 0.472,-0.493 0.86,-0.989 0.861,-1.1 7.9e-4,-0.114 0.358,-0.41 0.793,-0.657 0.786,-0.447 0.791,-0.446 0.791,0.198 0,0.357 -0.119,0.649 -0.264,0.649 -0.145,0 -0.264,0.119 -0.264,0.264 0,0.366 0.719,0.333 0.952,-0.0436 0.105,-0.169 0.221,-1.03 0.258,-1.92 0.0371,-0.885 0.107,-1.79 0.156,-2 0.0523,-0.235 -0.0732,-0.368 -0.308,-0.327 -0.272,0.0479 -0.234,-0.057 0.121,-0.334 0.592,-0.462 1.12,-0.373 0.969,0.165 -0.376,1.38 -0.55,2.31 -0.556,2.97 -0.01,1.16 -0.773,2.54 -1.49,2.69 -0.346,0.0711 -0.934,0.193 -1.31,0.271 -0.458,0.0956 -0.803,0.439 -1.06,1.06 -0.535,1.28 -1.95,1.19 -6.81,-0.44 -2.79,-0.935 -8.41,-1.57 -11.4,-1.3 -6.26,0.577 -10.1,2.65 -16.5,8.88 -1.67,1.63 -3.67,3.34 -4.44,3.81 -1.21,0.74 -1.54,1.14 -2.45,2.95 -0.58,1.15 -1.45,2.66 -1.94,3.34 -1.84,2.6 -2.89,6.27 -2.18,7.65 0.904,1.75 3.11,2.95 3.77,2.06 0.231,-0.316 0.539,-0.418 0.942,-0.313 0.379,0.099 1.1,-0.0976 1.96,-0.535 1.73,-0.876 2.13,-0.722 2.35,0.893 0.583,4.3 2.96,5.459993 5.75,2.79 1,-0.958 1.39,-0.516 1.38,1.56 -0.01,1.619993 -0.798,2.869993 -1.79,2.859993 -0.174,-0.003 -0.062,-0.211 0.248,-0.463 z m 22.1,-1.03 c 0.0295,-0.952991 0.0409,-0.965991 0.199,-0.23 0.167,0.78 1.02,-0.257 2.57,-3.139993 0.15,-0.278 0.563,-0.691 0.919,-0.916 0.646,-0.41 0.646,-0.41 0.121,0.2 -0.289,0.335 -1.06,1.58 -1.72,2.76 -1.37,2.449993 -2.13,2.939993 -2.08,1.319993 z m -5.52,-1.579993 c -0.741,-0.154 -0.762,-0.508 -0.0506,-0.888 0.815,-0.436 2.83,0.161 2.3,0.684 -0.2,0.2 -1.64,0.331 -2.25,0.204 z m -10.1,-0.944 c 0,-0.778 0.601,-1.26 1.58,-1.26 1.84,0 3.02,0.734 1.92,1.2 -0.68,0.286 -3.5,0.336 -3.5,0.0618 z m -3.31,-1.01 c -0.279,-0.451 0.524,-1.7 1.15,-1.79 0.643,-0.0915 1.44,0.399 1.31,0.802 -0.131,0.392 -2.29,1.26 -2.46,0.988 z m 35.6,-0.301 c -0.0177,-0.411 -0.279,-0.886 -0.618,-1.12 -0.567,-0.398 -0.569,-0.411 -0.0497,-0.411 1.31,0 2.07,-2.21 0.852,-2.47 -0.336,-0.0718 -0.135,-0.111 0.446,-0.0866 0.866,0.036 1.1,-0.0637 1.32,-0.551 0.144,-0.327 0.352,-0.595 0.463,-0.595 0.276,0 0.271,0.0155 -0.327,1.19 -0.291,0.57 -0.529,1.26 -0.529,1.53 0,0.27 -0.285,0.869 -0.634,1.33 -0.349,0.463 -0.692,1.08 -0.762,1.37 -0.0993,0.409 -0.135,0.367 -0.159,-0.183 z m -10.9,-0.33 c -0.174,-0.209 -0.575,-0.431 -0.891,-0.493 -0.558,-0.109 -0.557,-0.113 0.0366,-0.148 0.337,-0.0198 0.866,0.1 1.18,0.266 0.424,0.227 0.59,0.227 0.665,0 0.0554,-0.166 0.288,-0.302 0.516,-0.302 0.357,0 0.348,0.0748 -0.063,0.529 -0.566,0.625 -1.01,0.67 -1.44,0.148 z m -44,-1.4 c -0.424,-0.823 -1.24,-3.45 -1.2,-3.88 0.0133,-0.155 0.237,0.372 0.498,1.17 0.261,0.798 0.667,1.9 0.905,2.44 0.499,1.15 0.352,1.34 -0.201,0.264 z m 48.1,-2.02 c 0.647,-0.578 1.25,-0.902 1.55,-0.833 0.802,0.184 1.68,-0.382 2.43,-1.56 0.936,-1.48 2.18,-2.25 2.64,-1.63 0.183,0.25 0.685,0.436 1.18,0.436 0.674,0 0.824,0.0898 0.698,0.418 -0.0882,0.23 -0.16,0.468 -0.16,0.529 0,0.0608 -0.162,0.111 -0.361,0.111 -0.573,0 -1.75,1.05 -1.75,1.56 0,0.447 -0.279,0.56 -3.14,1.27 -0.421,0.104 -0.706,0.018 -0.861,-0.259 -0.264,-0.472 -1.35,-0.267 -2.57,0.485 -0.398,0.245 -0.244,0.0247 0.363,-0.517 z m 10.7,-2.33 c -0.05,-0.997 0.598,-1.26 3.06,-1.26 1.51,0 2.24,-0.12 2.7,-0.442 0.347,-0.243 0.545,-0.302 0.439,-0.13 -0.43,0.696 -1.8,1.15 -2.95,0.981 -0.689,-0.103 -1.2,-0.0611 -1.3,0.108 -0.111,0.18 -0.334,0.191 -0.632,0.0311 -0.6,-0.321 -1.01,-0.0483 -1.16,0.774 -0.122,0.657 -0.123,0.656 -0.159,-0.0568 z m -1.33,-1.84 c -0.0679,-1.59 0.749,-2.61 3.14,-3.96 1.79,-1.01 1.53,-0.653 -0.321,0.444 -1.6,0.949 -2.33,1.85 -2.6,3.22 -0.154,0.794 -0.202,0.857 -0.225,0.299 z m 7.75,-1.27 c 0.345,-1.78 0.695,-2.34 1.64,-2.66 0.502,-0.166 1.35,-0.748 1.89,-1.29 0.917,-0.932 1.44,-1.27 3.33,-2.16 2.86,-1.34 4.7,-8.14 3.27,-12.1 -0.537,-1.47 -0.32,-1.44 0.337,0.041 0.429,0.97 0.61,1.14 1.08,1.02 0.609,-0.159 0.609,-0.152 -10e-4,1.65 -0.147,0.436 -0.395,1.51 -0.55,2.38 -0.701,3.94 -2.12,6.28 -4.6,7.6 -0.851,0.454 -1.84,1.21 -2.21,1.69 -0.414,0.542 -1.17,1.05 -2.02,1.37 -1.28,0.476 -1.38,0.579 -1.68,1.76 -0.377,1.49 -0.747,1.99 -0.49,0.662 z m -9.84,-1.08 c 0.0774,-0.23 0.401,-0.337 0.853,-0.282 0.654,0.0792 0.71,0.0249 0.543,-0.529 -0.177,-0.59 -0.164,-0.597 0.294,-0.156 0.586,0.563 0.305,0.914 -0.929,1.16 -0.695,0.139 -0.859,0.0972 -0.762,-0.193 z m -55.8,-0.842 c -0.0105,-0.364 1.24,-2.69 1.75,-3.24 0.27,-0.296 0.391,-0.39 0.27,-0.208 -0.121,0.182 -0.624,1.08 -1.12,1.99 -0.493,0.915 -0.9,1.57 -0.903,1.46 z m 63.2,-1.71 c 0.359,-0.0672 0.891,-0.289 1.18,-0.493 0.291,-0.204 1,-0.37 1.58,-0.37 1.5,0 3.29,-0.929 3.48,-1.81 0.273,-1.24 0.351,-1.26 0.295,-0.0633 -0.0606,1.29 -1.4,2.07 -3.64,2.12 -0.517,0.0113 -1.17,0.195 -1.45,0.409 -0.282,0.213 -0.87,0.376 -1.31,0.36 -0.705,-0.0245 -0.721,-0.0411 -0.14,-0.15 z m 6.76,-4.83 c 0.248,-1.23 0.265,-1.25 1.25,-1.46 1.55,-0.333 1.81,-0.569 1.45,-1.34 -0.262,-0.575 -0.24,-0.738 0.14,-1.02 0.249,-0.182 0.452,-0.504 0.452,-0.716 0,-0.212 0.297,-0.644 0.661,-0.96 1.13,-0.983 0.464,-3.27 -1.4,-4.81 -0.908,-0.748 -0.935,-0.816 -0.505,-1.25 0.416,-0.416 0.455,-0.418 0.455,-0.017 0,0.241 0.588,1.11 1.31,1.93 1.44,1.64 1.65,3.48 0.542,4.75 -0.743,0.852 -1.04,1.59 -0.88,2.2 0.182,0.696 -1.42,2.43 -2.25,2.43 -0.297,0 -0.736,0.268 -0.974,0.595 -0.427,0.585 -0.431,0.579 -0.248,-0.33 z m -6.53,-1.52 c -0.0231,-0.254 -0.0238,-0.675 -0.002,-0.934 0.0338,-0.395 -0.047,-0.424 -0.5,-0.182 -0.64,0.342 -2.01,0.239 -1.86,-0.14 0.0896,-0.227 2.26,-1.19 2.69,-1.19 0.647,-0.0011 1.32,1.65 0.922,2.26 -0.491,0.75 -1.18,0.851 -1.25,0.182 z m 6.06,-1.53 c -0.357,-0.357 0.34,-1.17 1,-1.17 0.588,0 1.16,0.627 0.855,0.934 -0.236,0.236 -1.67,0.423 -1.86,0.241 z m -60.3,-0.646 c 1.41,-2.04 4.83,-5.93 6.08,-6.91 1.54,-1.21 5.85,-3.55 6.09,-3.31 0.0698,0.0698 -0.99,0.663 -2.36,1.32 -2.85,1.37 -4.41,2.68 -7.27,6.09 -2.04,2.44 -3.11,3.62 -2.55,2.81 z m 57.6,-2.02 c -0.361,-0.361 -0.178,-0.661 0.354,-0.578 0.296,0.0464 0.541,0.203 0.543,0.349 0.004,0.322 -0.639,0.486 -0.896,0.229 z m -16.8,-0.775 c 0,-0.424 0.596,-1.17 0.934,-1.17 0.459,0 0.478,0.13 0.114,0.81 -0.245,0.458 -1.05,0.735 -1.05,0.362 z m 18.5,-0.0932 c 0,-0.534 0.34,-1.08 0.673,-1.08 0.533,0 0.734,0.503 0.374,0.937 -0.354,0.427 -1.05,0.521 -1.05,0.142 z m 3.22,-6.86 c -0.329,-0.586 -1.05,-1.46 -1.61,-1.94 -0.555,-0.479 -1.22,-1.29 -1.48,-1.8 -0.599,-1.17 -1.06,-1.51 -2.37,-1.78 -1.22,-0.251 -1.5,-0.872 -0.599,-1.35 0.754,-0.404 3.05,0.447 2.55,0.946 -0.313,0.313 0.855,2.31 1.49,2.55 0.329,0.126 0.935,0.936 2.32,3.1 0.267,0.416 0.442,0.886 0.39,1.04 -0.0525,0.157 -0.365,-0.193 -0.694,-0.779 z m 1.46,-0.692 c -0.434,-1.44 -0.474,-2.7 -0.0436,-1.37 0.228,0.703 0.366,1.42 0.308,1.59 -0.0579,0.169 -0.177,0.0701 -0.265,-0.221 z m -19.3,-4.45 c -0.67,-0.49 -0.363,-0.847 1.03,-1.2 1.74,-0.439 2.34,-0.325 0.813,0.154 -1.28,0.399 -1.3,0.422 -0.619,0.656 0.938,0.324 2.67,-0.358 2.44,-0.96 -0.122,-0.318 0.0294,-0.411 0.666,-0.411 0.489,0 1,-0.209 1.26,-0.514 0.431,-0.504 0.447,-0.5 0.798,0.178 0.372,0.716 0.145,1.11 -0.641,1.12 -0.178,0.0022 -0.995,0.301 -1.82,0.665 -1.65,0.731 -3.18,0.85 -3.93,0.304 z m 8.98,-2.02 c -0.0898,-0.145 -0.0967,-0.372 -0.0153,-0.504 0.218,-0.353 1.2,-0.0235 1.2,0.402 0,0.419 -0.944,0.499 -1.19,0.101 z"
                 fill="#674e31"
                 id="path8"
                 sodipodi:nodetypes="cccccccccccccscccccccsccscccsccsccccscccccccccsccccccsccccccccsccccccscccccccccccccsscsccccccccscsccsssccccccccccccccscscssccccscccssccccccccscccsccccccsccccscscccccccccccsccccccccsccccsscccccscscscccccscccccccsccccccccccscccccccccccccccccccccsccccccccccccscccccccccccccsccccccccsccccccscccccccccccccscsccccssscccccccccccccccccccccccccccccccccccccccsscssccccccscccscscccccccccscccccscccccccscsssccccccsccccccccccccccccccccccccccccccccccccccscccccscccccccccccscccscccsccccccccccccscccccsccccccccccsccccsccccccccccccccccccccccccsccccccccscc" />
            <path
                 d="m 508.16437,158.02855 c -0.0241,-0.425 1.4,-3.78 2.62,-6.18 1.26,-2.47 5.55,-7.23 7.52,-8.34 3.71,-2.1 7.6,-4.14 8.74,-4.59 4.59,-1.8 9.91,-2.38 9.91,-1.09 0,0.438 0.062,0.446 0.727,0.0992 2.61,-1.36 3.15,-0.373 1.5,2.75 -1.06,2.01 -0.846,2.27 0.343,0.409 0.176,-0.275 -0.0792,0.391 -0.567,1.48 -2.12,4.74 -2.85,8.35 -2.11,10.4 0.183,0.519 0.179,0.519 -0.211,0.0185 -0.561,-0.721 -0.984,0.108 -1.03,2.01 -0.0172,0.773 -0.132,1.76 -0.254,2.2 -0.279,0.991 -0.0877,-3.67 0.265,-6.48 0.782,-6.22 -3.13,-0.835 -4.08,5.62 -0.209,1.41 -0.654,1.95 -0.654,0.8 0,-2.47 3.72,-11 5.66,-13 2.24,-2.3 3.68,-5.91 2.41,-6.02 -1.18,-0.103 -2.51,1.54 -4.63,5.75 -0.475,0.945 -1.29,2.37 -1.8,3.17 -0.516,0.8 -1.57,2.64 -2.34,4.1 -0.77,1.45 -1.4,2.54 -1.41,2.41 -0.0145,-0.59 4.5,-9.44 4.74,-9.29 0.164,0.101 0.201,-0.0113 0.0946,-0.288 -0.107,-0.278 -0.0693,-0.389 0.0965,-0.286 0.27,0.167 1.01,-1.1 0.774,-1.33 -0.0672,-0.0672 -0.385,-0.0388 -0.706,0.0631 -0.445,0.141 -0.499,0.238 -0.226,0.406 0.523,0.323 0.187,0.522 -0.955,0.565 -0.822,0.0309 -1.25,0.272 -2.31,1.31 -0.717,0.702 -1.4,1.28 -1.52,1.28 -0.12,0 -0.152,0.451 -0.078,1 0.0976,0.728 0.0161,1.1 -0.298,1.36 -0.39,0.324 -0.406,0.289 -0.16,-0.359 0.15,-0.395 0.273,-0.769 0.273,-0.832 0,-0.852 -3.87,2.82 -6.14,5.83 -0.878,1.16 -1.69,2.11 -1.8,2.11 -0.113,0 -0.304,0.108 -0.425,0.241 -0.128,0.14 -0.0818,0.161 0.11,0.0505 0.469,-0.27 0.418,-0.0496 -0.335,1.44 -0.814,1.61 -1.31,1.73 -0.766,0.189 1.53,-4.34 9,-12.3 13.6,-14.4 0.811,-0.374 1.65,-0.77 1.86,-0.879 0.213,-0.109 0.746,-0.857 1.18,-1.66 1.28,-2.36 0.309,-2.86 -3.42,-1.76 -1.02,0.3 -2.5,0.638 -3.3,0.751 -2.28,0.322 -2.76,0.522 -8.07,3.34 -4.7,2.49 -8.35,6.24 -10.3,10.6 -1.62,3.56 -2.45,5.23 -2.46,4.96 z m 14,-5.29 c 0.659,-0.872 2.01,-2.48 3,-3.57 1.8,-1.98 1.8,-1.98 -0.115,-0.132 -1.05,1.02 -2.42,2.56 -3.04,3.44 -2.04,2.87 -1.94,3.04 0.159,0.264 z m 14.8,-6.32 c 0.741,-1.67 0.958,-2.9 0.486,-2.75 -0.552,0.183 -1.88,2.93 -1.68,3.46 0.284,0.739 0.644,0.524 1.19,-0.713 z m -12.5,11.6 c -0.296,-0.296 -0.196,-0.924 0.116,-0.731 0.194,0.12 0.236,0.003 0.124,-0.35 -0.154,-0.486 0.824,-3.67 1.06,-3.44 0.055,0.055 -0.14,0.732 -0.434,1.5 -0.293,0.772 -0.49,1.54 -0.437,1.7 0.088,0.264 1.79,-4.1 1.77,-4.53 -0.005,-0.101 -0.179,0.113 -0.387,0.476 -0.841,1.47 -0.298,-0.004 0.681,-1.85 0.578,-1.09 0.982,-1.69 0.898,-1.32 -0.22,0.952 0.457,0.0938 1.46,-1.85 0.413,-0.8 0.949,-1.69 1.19,-1.98 0.243,-0.291 0.148,0.007 -0.211,0.661 -2.21,4.02 -3.19,6.02 -4.29,8.72 -1.39,3.42 -1.3,3.23 -1.54,3 z m 14.1,-0.331 c 0,-0.279 -0.224,-1.03 -0.499,-1.67 -0.498,-1.16 -0.498,-1.16 0.0525,-1.15 0.582,0.0187 0.548,0.104 1.64,-4.16 0.253,-0.988 0.518,-1.74 0.589,-1.67 0.071,0.07 -0.192,1.39 -0.586,2.93 -0.696,2.73 -0.792,4.63 -0.289,5.75 0.161,0.36 0.0836,0.463 -0.35,0.463 -0.373,0 -0.557,-0.168 -0.557,-0.507 z m 3.83,-2.4 c 0.0876,-2.17 0.594,-5.18 0.832,-4.94 0.097,0.097 -0.27,3.04 -0.798,6.4 -0.0686,0.436 -0.084,-0.218 -0.0341,-1.45 z m 55.1,-2.41 c -0.0597,-1.08 1.68,-9.65 3.03,-14.9 0.821,-3.2 1.77,-7.06 2.1,-8.59 0.401,-1.82 0.62,-2.46 0.64,-1.85 0.022,0.662 0.0963,0.812 0.261,0.529 0.423,-0.729 0.447,-1.73 0.0394,-1.64 -0.309,0.0667 -0.315,0.009 -0.0361,-0.327 1.06,-1.28 1.02,0.376 -0.0893,3.23 -0.493,1.27 -1.09,3.02 -1.32,3.89 -0.848,3.17 -2.61,10.7 -3.6,15.3 -0.555,2.62 -1.02,4.57 -1.03,4.33 z m -53.8,-4.81 c 0.0822,-0.701 0.619,-2.84 1.19,-4.75 0.571,-1.91 0.985,-3.63 0.914,-3.81 -0.275,-0.716 -0.969,-0.274 -1.75,1.12 -1.01,1.79 -1.1,1.81 -0.562,0.13 0.46,-1.44 0.362,-1.68 -0.797,-1.95 -0.59,-0.139 -0.925,0.012 -1.83,0.825 -1.16,1.04 -1.15,0.83 0.0591,-0.723 0.846,-1.09 2.66,-1.31 3.32,-0.402 0.301,0.412 0.413,0.429 0.786,0.119 0.376,-0.312 0.5,-0.281 0.916,0.233 0.383,0.473 0.525,0.52 0.697,0.228 0.406,-0.688 1.32,-0.941 4.07,-1.13 3.22,-0.221 4.18,-0.563 5.58,-1.98 0.564,-0.57 1.13,-1.04 1.25,-1.04 0.12,0 0.272,-0.4 0.329,-0.889 0.178,-1.52 -1.44,-1.73 -4.54,-0.583 -1.28,0.472 -4.15,0.749 -4.36,0.419 -0.0683,-0.11 0.736,-0.262 1.79,-0.337 1.15,-0.082 2.42,-0.37 3.2,-0.724 1.58,-0.719 4.21,-1.01 4.78,-0.535 0.896,0.743 0.0378,3.43 -1.18,3.71 -0.363,0.083 -0.81,0.461 -0.993,0.841 -0.396,0.821 -1.63,1.15 -5.22,1.42 -3.17,0.23 -5.03,1.13 -5.32,2.57 -0.339,1.68 -2.44,8.24 -2.32,7.25 z m -2.64,-1.24 c 0.089,-0.363 0.385,-1.14 0.658,-1.72 0.273,-0.58 0.421,-0.76 0.329,-0.398 -0.092,0.363 -0.388,1.14 -0.658,1.72 -0.27,0.582 -0.418,0.761 -0.329,0.398 z m 51.6,-7.07 c 0,-0.966 1.26,-8.55 1.45,-8.74 0.214,-0.214 0.169,0.184 -0.552,4.88 -0.685,4.47 -0.901,5.39 -0.901,3.86 z m 17.3,-5.2 c -0.475,-0.574 -0.663,-0.781 -0.909,-1.13 -0.12,-0.17 -0.28,-0.757 -0.623,-1.22 -0.343,-0.463 -0.934,-1.66 -1.31,-2.66 -1.97,-5.21 -4.64,-5.86 -11,-2.69 -0.655,0.325 -1.87,0.662 -2.71,0.749 -1.48,0.153 -3.21,0.855 -5.35,2.18 -3.36,2.07 -5.43,0.0704 -9,-8.69 -1.19,-2.93 -2.53,-6.15 -2.97,-7.17 -2.44,-5.62 -2.79,-10.5 -1.02,-14.300006 0.679,-1.47 1.23,-2.76 1.23,-2.87 0,-0.112 0.357,-0.907 0.794,-1.77 0.703,-1.38 0.774,-1.73 0.621,-3.03 -0.188,-1.6 0.131,-2.13 0.999,-1.66 0.298,0.159 0.521,0.148 0.632,-0.0311 0.105,-0.169 0.614,-0.211 1.3,-0.108 2,0.3 3.06,-0.559 3.68,-2.99 0.279,-1.1 0.397,-1.22 1.66,-1.69 0.854,-0.317 1.61,-0.83 2.02,-1.37 0.363,-0.476 1.36,-1.24 2.21,-1.69 2.48,-1.32 3.9,-3.66 4.6,-7.6 0.155,-0.872 0.403,-1.94 0.55,-2.38 0.61,-1.8 0.61,-1.81 10e-4,-1.65 -0.467,0.122 -0.664,-0.0479 -1.1,-0.949 -0.29,-0.604 -0.945,-1.61 -1.46,-2.24 -0.515,-0.63 -1,-1.46 -1.09,-1.85 -0.803,-3.53 -1.75,-5.03 -3.46,-5.45 -0.408,-0.102 -1.48,-0.478 -2.38,-0.838 -1.4,-0.558 -1.72,-0.603 -2.19,-0.31 -0.823,0.512 -0.539,1.09 0.653,1.34 1.32,0.27 1.77,0.613 2.37,1.78 0.261,0.509 0.921,1.31 1.47,1.78 1.64,1.41 2.53,3.15 1.95,3.8 -0.453,0.501 -0.438,0.543 0.482,1.3 1.86,1.53 2.52,3.82 1.39,4.8 -0.363,0.316 -0.661,0.748 -0.661,0.96 0,0.212 -0.203,0.535 -0.452,0.716 -0.382,0.28 -0.403,0.438 -0.135,1.03 0.345,0.756 0.238,0.847 -1.65,1.41 -0.8,0.239 -0.835,0.318 -1.57,3.54 -0.2,0.881 -1.99,1.81 -3.5,1.81 -0.58,0 -1.29,0.175 -1.57,0.388 -0.282,0.213 -0.735,0.392 -1.01,0.396 -2.48,0.0422 -5.14,2.83 -5.59,5.88 -0.415,2.76 -0.653,3.1 -2.04,2.92 -1.47,-0.189 -0.797,-2.18 0.734,-2.18 0.279,0 0.653,-0.543 0.653,-0.947 0,-0.0608 -0.373,-0.111 -0.83,-0.111 -0.466,0 -0.97,-0.191 -1.15,-0.436 -0.454,-0.621 -1.7,0.15 -2.64,1.63 -0.739,1.17 -1.71,1.8 -2.38,1.55 -0.237,-0.0911 -0.934,0.298 -1.73,0.968 -1.4,1.17 -1.43,1.27 -0.877,3.23 0.0952,0.338 -0.0236,0.463 -0.441,0.463 -0.349,0 -0.625,-0.206 -0.709,-0.529 -0.144,-0.55 -0.76,-0.727 -0.914,-0.263 -0.057,0.171 -0.399,0.149 -0.958,-0.0622 -0.995,-0.375 -2.54,0.254 -3.07,1.25 -1.78,3.360006 -2.41,3.970006 -2.54,2.479996 -0.212,-2.359996 -1.07,-3.019996 -1.76,-1.349996 -1.06,2.580006 -3.27,4.930006 -3.27,3.480006 0,-2.11001 -1.65,-2.600006 -2.57,-0.773 -0.989,1.96 -1.5,2.02 -1.86,0.215 -0.168,-0.851 -0.183,-1.57001 -0.0374,-1.850006 0.376,-0.703 0.282,-1.23 -0.271,-1.53 -0.875,-0.468 -1.43,0.364 -1.25,1.869996 0.118,0.99501 0.0424,1.39001 -0.366,1.91001 -0.283,0.36 -0.514,0.791 -0.514,0.958 0,0.167 -0.13,0.224 -0.29,0.125 -0.159,-0.0984 -0.546,-0.0513 -0.859,0.105 -0.768,0.383 -2.58,1.1 -2.78,1.1 -0.0873,0 0.0966,-0.179 0.409,-0.397 0.727,-0.51 1.23,-2.02 1,-3.04 -0.217,-0.987006 -0.868,-1.040006 -1.72,-0.128 -0.421,0.449 -0.711,0.577 -0.892,0.396 -0.147,-0.147 -0.47,-0.268 -0.717,-0.268 -0.247,0 -0.701,-0.426 -1.01,-0.946006 -0.701,-1.19 -1.11,-1.06 -1.61,0.494006 -0.553,1.71 -0.887,1.96 -3.99,2.97 -3.04,0.982 -3.04,1.23 0.003,0.383 1.07,-0.296 2.01,-0.475 2.09,-0.396 0.0783,0.0784 0.0791,0.142 0.002,0.142 -0.558,0 -6.14,1.62 -6.44,1.87 -0.52,0.431 -0.47,1.11 0.136,1.88 0.603,0.767 0.984,2.06 0.606,2.06 -0.143,0 -0.526,-0.624 -0.851,-1.39 -0.667,-1.57 -1.24,-2.31 -1.77,-2.31 -0.791,0 -0.623,0.816 0.421,2.06 0.595,0.706 1.08,1.38 1.08,1.49 0,0.598 3.32,7.54 3.93,8.22 0.669,0.742 1.74,2.74 1.56,2.92 -0.4,0.4 -3.42,-4.85 -5.39,-9.36 -0.483,-1.11 -0.937,-1.75 -1.34,-1.91 -0.381,-0.145 -0.553,-0.375 -0.461,-0.616 0.156,-0.407 -0.187,-1.21 -0.767,-1.79 -0.51,-0.513 -1.94,-3.64 -2.15,-4.71 -0.442,-2.220006 -0.693,-2.650006 -1.76,-3.080006 -0.568,-0.227 -1.37,-0.847 -1.78,-1.38 -1.11,-1.43 -1.3,-1.86 -0.422,-0.956 0.827,0.853 2.11,1.47 4.16,1.99 0.715,0.184 1.14,0.409 0.969,0.515 -0.222,0.137 -0.155,0.672 0.246,1.970006 0.651,2.11 0.711,2.99 0.131,1.92 -0.219,-0.404 -0.496,-0.674 -0.616,-0.6 -0.356,0.22 0.524,2.49 1.03,2.65 0.673,0.214 1.39,-0.13 1.21,-0.585 -0.556,-1.45 -0.459,-1.78 0.232,-0.8 0.857,1.22 0.505,1.23 4.88,-0.2 4.32,-1.41 4.63,-1.67 4.64,-3.830006 0.0117,-2.03 -0.385,-2.47 -1.38,-1.51 -2,1.91 -5.42,1.48 -5.34,-0.682 0.006,-0.171 0.186,0.014 0.401,0.41 0.895,1.65 2.15,1.65 3.96,0.0066 3.41,-3.1 3.28,-3.02 4.46,-2.84 0.595,0.0937 1.65,0.463 2.36,0.822 0.701,0.358 1.95,0.769 2.78,0.913 0.83,0.144 1.74,0.372 2.03,0.507 1.93,0.895 4.3,1.51 4.78,1.23 0.278,-0.161 1.34,-0.389 2.36,-0.505 1.02,-0.116 2.41,-0.279 3.1,-0.361 0.998,-0.12 1.29,-0.0642 1.42,0.272 0.224,0.583 0.723,0.528 1.32,-0.147 0.903,-1.02 2.81,-2.07 3.79,-2.09 0.517,-0.0102 1.18,-0.115 1.47,-0.232 0.438,-0.177 0.609,-0.0482 0.994,0.745 0.466,0.959 0.466,0.959 0.323,-0.419 -0.133,-1.28 -0.081,-1.45 0.741,-2.38 0.486,-0.55 1.15,-1.38 1.47,-1.84 0.321,-0.464 1.24,-1.22 2.05,-1.68 0.804,-0.46 2.23,-1.6 3.17,-2.53 0.939,-0.93 1.88,-1.69 2.09,-1.69 0.21,0 0.801,-0.366 1.31,-0.813 0.914,-0.803 1.47,-0.839 1.47,-0.0961 0,0.989 3.74,-0.689 5.41,-2.42 1.22,-1.28 1.48,-1.41 1.29,-0.662 -0.17,0.652 0.251,0.892 1.02,0.58 0.338,-0.137 0.952,-0.322 1.36,-0.411 0.621,-0.134 0.695,-0.228 0.43,-0.547 -0.246,-0.297 -0.248,-0.472 -0.008,-0.762 0.751,-0.905 -0.207,-6.15 -1.04,-5.7 -0.317,0.17 -0.855,0.238 -1.2,0.153 -0.745,-0.187 -1.09,0.245 -0.632,0.795 0.585,0.705 -0.914,3.39 -2.38,4.28 -1.61,0.966 -1.71,0.933 -1.87,-0.599 -0.132,-1.32 -0.132,-1.32 -1.32,-1.45 -2.15,-0.239 -1.08,-2.11 1.21,-2.11 0.316,0 0.39,-0.276 0.338,-1.26 -0.117,-2.22 0.866,-4.3 2.03,-4.3 0.974,0 1.28,-0.619 0.79,-1.57 -0.233,-0.451 -0.351,-0.937 -0.262,-1.08 0.213,-0.345 1.71,0.723 1.71,1.22 0,0.265 0.316,0.378 1.06,0.378 0.999,0 1.06,0.044 1.06,0.793 0,0.645 0.111,0.794 0.595,0.796 0.327,0.0016 1.04,0.0766 1.59,0.167 1.16,0.192 1.27,-0.0994 0.445,-1.25 -0.342,-0.48 -0.484,-0.965 -0.379,-1.29 0.134,-0.422 0.0757,-0.492 -0.292,-0.351 -0.375,0.144 -0.419,0.0832 -0.239,-0.332 0.399,-0.92 0.2,-1.74 -0.631,-2.6 -0.451,-0.465 -0.819,-0.934 -0.819,-1.04 0,-0.307 -1.13,-1.76 -1.37,-1.76 -0.118,0 -0.215,0.242 -0.215,0.537 0,0.783 -0.665,0.912 -1.53,0.296 -0.416,-0.296 -1.54,-0.835 -2.51,-1.2 -0.965,-0.363 -2.11,-0.921 -2.54,-1.24 -0.785,-0.58 -0.785,-0.58 -2.32,0.291 -1.22,0.689 -1.8,0.86 -2.78,0.816 -2.08,-0.0916 -3.13,0.946 -3.49,3.47 -0.186,1.28 -1.21,2.84 -1.86,2.84 -0.396,0 -0.668,0.58 -0.661,1.41 0.003,0.402 0.397,0.81 1.32,1.37 1.53,0.927 1.62,1.38 0.497,2.5 -1.07,1.07 -1.4,0.921 -1.5,-0.667 -0.0457,-0.713 -0.224,-1.39 -0.396,-1.5 -0.467,-0.297 -1.5,-0.248 -1.5,0.0707 0,0.402 -2.71,0.2 -2.84,-0.212 -0.0599,-0.182 0.0794,-0.33 0.31,-0.33 1.47,0 -0.388,-1.13 -3.67,-2.23 -6.49,-2.18 -12.2,-2.15 -15.2,0.0722 -0.66,0.491 -1.2,0.664 -1.98,0.635 -0.976,-0.0362 -1.01,-0.0143 -0.416,0.234 0.902,0.373 0.0786,1.03 -1.31,1.04 -1.4,0.0094 -2.92,0.421 -3.27,0.885 -0.316,0.417 -0.71,0.717 -3.66,2.79 -3.06,2.15 -6.85,5.62 -7.01,6.43 -0.0818,0.409 -0.49,1.11 -0.907,1.56 -0.417,0.45 -0.758,0.918 -0.758,1.05 0,0.13 -0.104,0.236 -0.231,0.236 -0.127,0 -0.297,0.33 -0.378,0.733 -0.0807,0.403 -0.524,1.21 -0.985,1.78 -0.461,0.578 -1.14,1.65 -1.51,2.37 -0.367,0.727 -0.9,1.65 -1.18,2.05 -0.495,0.702 -0.505,1.24 -0.0527,2.87 0.644,2.31 7.24,0.219 7.24,-2.3 0,-0.6 0.72,-0.956 1.3,-0.645 1.31,0.702 1.75,3.22 0.813,4.64 -0.289,0.436 -0.54,1.09 -0.558,1.45 -0.0181,0.363 -0.13,0.0839 -0.248,-0.621 -0.392,-2.34 -0.565,-2.43 -2.56,-1.37 -0.79,0.421 -1.45,0.598 -1.85,0.497 -0.426,-0.107 -0.733,-0.008 -0.966,0.311 -0.654,0.894 -2.86,-0.315 -3.76,-2.06 -0.711,-1.37 0.335,-5.05 2.18,-7.65 0.485,-0.684 1.36,-2.19 1.94,-3.34 0.911,-1.81 1.24,-2.21 2.45,-2.95 0.77,-0.471 2.77,-2.19 4.44,-3.81 6.41,-6.23 10.3,-8.3 16.5,-8.88 3.01,-0.277 8.63,0.361 11.4,1.3 4.86,1.63 6.28,1.72 6.81,0.44 0.258,-0.618 0.603,-0.962 1.06,-1.06 0.373,-0.0779 0.961,-0.2 1.31,-0.271 0.719,-0.148 1.48,-1.52 1.49,-2.69 0.007,-0.783 0.322,-2.27 0.652,-3.07 0.318,-0.77 -0.405,-0.548 -2.25,0.693 -2.25,1.51 -5.36,3.86 -5.59,4.23 -0.134,0.21 -0.431,0.195 -1.06,-0.0523 -1.36,-0.536 -7.14,-2.37 -7.88,-2.5 -0.646,-0.113 -0.644,-0.117 0.0666,-0.152 0.4,-0.0198 1.72,0.31 2.94,0.732 5.75,1.99 6.86,1.61 12.8,-4.39 1.98,-2.01 2,-2.02 2.86,-1.68 0.359,0.145 0.686,0.0758 1.02,-0.217 0.395,-0.347 1.2,-0.442 4.1,-0.487 1.98,-0.031 4.05,-0.0947 4.6,-0.142 0.575,-0.0495 0.991,0.0321 0.991,0.194 0,0.154 0.669,0.435 1.49,0.625 3.23,0.751 5.96,2.56 6.78,4.5 0.39,0.92 1.26,1.88 1.69,1.88 0.193,0 0.35,0.238 0.35,0.529 0,0.403 0.176,0.529 0.743,0.529 4.97,0 1.27,16 -4.12,17.8 -0.253,0.0841 -0.639,0.537 -0.857,1.01 -0.285,0.615 -0.713,0.969 -1.53,1.27 -1.21,0.44 -2.38,1.67 -2.96,3.12 -0.423,1.05 -1.82,2.03 -3.38,2.38 -1.52,0.337 -2.34,0.915 -2.56,1.81 -0.102,0.408 -0.444,1.16 -0.759,1.66 -0.596,0.956 -1.97,4.11 -2.87,6.590006 -0.567,1.56 -0.565,4.45 0.005,6.5 0.162,0.582 0.538,2.16 0.835,3.51 0.297,1.35 0.903,3.19 1.35,4.1 0.447,0.91 1.1,2.42 1.46,3.36 0.36,0.945 0.801,1.96 0.98,2.25 0.179,0.291 0.605,1.24 0.948,2.11 0.343,0.87 0.815,1.74 1.05,1.93 0.235,0.189 0.427,0.605 0.427,0.925 0,0.345 0.235,0.685 0.577,0.835 0.454,0.199 0.546,0.408 0.433,0.976 -0.131,0.657 -0.0277,0.774 1.14,1.29 0.707,0.314 1.54,0.693 1.86,0.842 0.822,0.389 1.97,0.0584 1.75,-0.505 -0.127,-0.33 -0.0603,-0.398 0.265,-0.273 0.239,0.0916 0.512,0.0395 0.608,-0.116 0.263,-0.426 2.74,-1.46 4.92,-2.05 2.83,-0.769 4.71,-1.46 4.93,-1.81 0.216,-0.349 2.4,-0.685 4.45,-0.686 1.46,-1.9e-4 3.52,1.04 3.52,1.78 0,0.198 0.18,0.509 0.399,0.692 0.22,0.182 0.586,0.974 0.814,1.76 0.488,1.68 1.95,4.01 2.41,3.86 0.178,-0.0599 0.591,0.0785 0.918,0.307 1.04,0.479 1.26,0.161 0.598,1.46 -0.65,1.19 -0.44,1.58 -1.59,0.433 z m -56.5,-35.400006 c 0.242,-0.242 -0.25,-0.643 -0.986,-0.805 -0.778,-0.171 -1.86,0.207 -1.86,0.649 0,0.444 2.43,0.577 2.85,0.156 z m -8.86,-0.802 c 1.1,-0.461 -0.0856,-1.2 -1.92,-1.2 -0.977,0 -1.58,0.479 -1.58,1.26 0,0.274 2.82,0.224 3.5,-0.0618 z m -4.36,-1.93 c 0.134,-0.403 -0.666,-0.893 -1.31,-0.802 -0.626,0.089 -1.43,1.34 -1.15,1.79 0.168,0.272 2.33,-0.596 2.46,-0.988 z m 35.6,-9.84 c 0.172,-0.172 0.123,-0.399 -0.143,-0.665 -0.428,-0.428 -1.82,0.327 -1.82,0.988 0,0.329 1.57,0.0711 1.96,-0.323 z m 6.91,-8.83 c 0.399,-0.609 -0.276,-2.26 -0.922,-2.26 -0.425,5.29e-4 -2.6,0.962 -2.69,1.19 -0.15,0.379 1.22,0.482 1.86,0.14 0.453,-0.242 0.534,-0.213 0.5,0.182 -0.129,1.51 0.49322,1.88617 1.25,0.751 z m 6.67,-1.59 c 0.307,-0.307 -0.267,-0.934 -0.855,-0.934 -0.662,0 -1.36,0.818 -1,1.17 0.182,0.182 1.62,-0.0047 1.86,-0.241 z m -6.16,-2.67 c 0.666,-1.14 0.682,-1.24 0.283,-1.85 -1.03,-1.58 -2.39,0.271 -1.6,2.17 0.468,1.12 0.472,1.12 1.32,-0.321 z m 2.54,0.0155 c -0.002,-0.145 -0.246,-0.302 -0.543,-0.349 -0.532,-0.0833 -0.715,0.217 -0.354,0.578 0.257,0.257 0.901,0.0923 0.896,-0.229 z m -16.7,-0.908 c 0.364,-0.68 0.346,-0.81 -0.114,-0.81 -0.338,0 -0.934,0.748 -0.934,1.17 0,0.374 0.803,0.0966 1.05,-0.362 z m 18.5,0.126 c 0.36,-0.433 0.159,-0.937 -0.374,-0.937 -0.333,0 -0.673,0.545 -0.673,1.08 0,0.379 0.693,0.285 1.05,-0.142 z m -11.8,-12.2 c 0.822,-0.363 1.64,-0.663 1.82,-0.665 0.786,-0.0098 1.01,-0.408 0.641,-1.12 -0.342,-0.659 -0.378,-0.669 -0.769,-0.212 -0.262,0.306 -0.971,0.547 -1.96,0.666 -3.4,0.409 -4.6,0.949 -3.66,1.64 0.746,0.545 2.28,0.427 3.93,-0.304 z m 6.24,-1.82 c 0,-0.426 -0.987,-0.756 -1.2,-0.402 -0.23,0.373 0.126,0.768 0.692,0.768 0.282,0 0.513,-0.165 0.513,-0.366 z m -35,74.700006 c -1.75,-0.805 -2.12,-1.38 -1.59,-2.5 0.602,-1.27 0.427,-2.03 -0.632,-2.74 -0.836,-0.562 -0.854,-0.603 -0.264,-0.598 1.54,0.0143 2.37,1.66 1.58,3.13 -0.574,1.07 -0.343,1.58 1.04,2.28 1.91,0.969 1.81,1.32 -0.132,0.428 z m -6.85,-6.72 c -0.374,-0.638 -0.68,-1.27 -0.681,-1.4 -0.004,-0.616 -1.68,-1.17 -3.54,-1.17 -2.12,0 -2.37,-0.103 -1.95,-0.785 0.222,-0.355 0.187,-0.61 -0.148,-1.09 -0.24,-0.343 -0.432,-0.865 -0.427,-1.16 0.008,-0.395 0.108,-0.31 0.384,0.323 0.476,1.1 1.12,1.11 2.82,0.0661 1.26,-0.772 2.68,-1.04 2.98,-0.552 0.24,0.388 -0.125,1.05 -0.674,1.22 -0.717,0.228 -0.353,0.652 0.559,0.652 0.45,0 0.873,-0.19 1.03,-0.463 0.199,-0.345 0.227,-0.212 0.111,0.526 -0.283,1.81 0.666,2.25 2.34,1.09 0.965,-0.669 1.03,-0.678 1.68,-0.247 0.892,0.585 0.695,1.07 -0.433,1.07 -0.673,0 -0.965,0.146 -1.15,0.578 -0.14,0.318 -0.467,0.634 -0.727,0.702 -0.882,0.231 -0.586,1.23 0.364,1.23 1.14,0 0.874,0.159 -0.62,0.376 -1.24,0.179 -1.24,0.179 -1.92,-0.981 z m -1.87,-4.95 c 0.389,-0.751 0.383,-0.793 -0.11,-0.793 -0.553,0 -1.41,0.993 -1.18,1.36 0.286,0.462 0.901,0.191 1.29,-0.572 z m -0.661,-11.5 c -0.227,-0.274 -0.237,-0.396 -0.0324,-0.396 0.163,0 0.297,-0.261 0.297,-0.579 0,-0.552 0.0167,-0.556 0.358,-0.0892 0.67,0.917 4.1,-2.42 3.72,-3.62 -0.113,-0.357 -0.0724,-0.476 0.122,-0.355 0.385,0.238 0.374,1.02 -0.0201,1.41 -0.172,0.172 -0.253,0.373 -0.18,0.446 0.0732,0.0732 0.521,-0.556 0.995,-1.4 0.474,-0.843 1.11,-1.69 1.42,-1.88 0.456,-0.285 0.425,-0.188 -0.166,0.514 -0.4,0.475 -0.954,1.31 -1.23,1.85 -0.497,0.975 -4.17,4.49 -4.69,4.49 -0.147,0 -0.416,-0.178 -0.597,-0.396 z m -1.69,-0.801 c -0.488,-0.488 -0.302,-1.1 0.403,-1.33 0.495,-0.157 1.44,0.342 1.17,0.616 -0.0727,0.0727 -0.318,-0.0225 -0.546,-0.211 -0.327,-0.272 -0.481,-0.276 -0.733,-0.0189 -0.25,0.255 -0.184,0.435 0.305,0.835 0.447,0.365 0.508,0.51 0.217,0.51 -0.224,0 -0.589,-0.182 -0.811,-0.404 z m -2.43,-1.64 c 0.107,-0.109 0.743,-0.377 1.41,-0.595 3.05,-0.993 1.32,-1.11 -2.27,-0.155 -0.922,0.245 -1.81,0.399 -1.98,0.341 -0.414,-0.143 7.82,-2.83 8.59,-2.81 0.338,0.0106 -0.448,0.311 -1.75,0.668 -2.69,0.738 -3.24,1.03 -1.4,0.762 0.858,-0.128 1.26,-0.0937 1.26,0.107 0,0.474 1.52,0.339 2.64,-0.234 0.57,-0.291 1.19,-0.522 1.38,-0.513 0.637,0.0285 -2.5,1.31 -3.21,1.31 -0.708,0 -3.31,0.82 -3.64,1.15 -0.0965,0.0965 -0.413,0.175 -0.704,0.175 -0.291,0 -0.441,-0.0892 -0.333,-0.198 z m 1.61,-4.69 c 0.487,-0.234 4.63,-1.39 4.63,-1.29 0,0.316 -2.21,1.13 -3.44,1.26 -0.8,0.0881 -1.33,0.103 -1.19,0.0334 z m 32.9,-1.9 c -0.617,-0.226 -1.59,-1.19001 -1.59,-1.580006 0,-0.435 -0.004,-0.436 1.15,0.0461 0.522,0.218 1.39,0.395996 1.94,0.395996 0.77,0 0.916,0.07 0.668,0.31901 -0.249,0.249 -0.587,0.247 -1.54,-0.008 -1.27,-0.34001 -1.72,-0.24601 -1.22,0.256 0.181,0.181 0.935,0.247 1.96,0.173 1.54,-0.111 1.61,-0.0939 0.879,0.219 -0.836,0.358 -1.59,0.417 -2.25,0.176 z m 3.78,-1.290006 c 0.948,-1.05 1.35,-2.45 0.977,-3.42 -0.244,-0.641 -0.228,-0.688 0.128,-0.393 0.875,0.726 0.326,2.73 -1.09,3.969996 -0.752,0.66001 -0.752,0.66001 -0.0152,-0.156996 z m -0.658,-0.393 c 0.223,-0.288 0.274,-0.711 0.147,-1.2 -0.108,-0.417 -0.203,-0.992 -0.211,-1.28 -0.0215,-0.737 -1.13,-1.23 -2.58,-1.14 -0.788,0.0468 -1.15,-0.0184 -0.99,-0.178 0.366,-0.365 3.44,-0.499 4.22,-0.183 0.465,0.189 0.524,0.274 0.198,0.286 -0.504,0.0183 -0.62,0.417 -0.198,0.678 0.177,0.109 0.177,0.329 -7.9e-4,0.66 -0.178,0.332 -0.178,0.551 -7.9e-4,0.66 0.432,0.267 0.305,0.855 -0.33,1.52 -0.327,0.342 -0.44,0.422 -0.251,0.178 z m -53.6,-5.71 c -0.179,-0.393 -0.377,-1.31 -0.44,-2.05 -0.115,-1.33 -0.115,-1.33 0.259,0.252 0.206,0.872 0.457,1.79 0.558,2.05 0.296,0.743 -0.0201,0.532 -0.377,-0.252 z m -0.274,-5.93 c -0.074,-2.28 2.19,-6.23 4.21,-7.37 2.51,-1.41 2.96,-1.87 6.74,-6.71 6.1,-7.82 10.4,-10.1 19.7,-10.3 1.96,-0.0464 2.97,-0.0425 2.25,0.0088 -12.1,0.851 -16.2,3.15 -23.6,13.1 -1.73,2.33 -2.96,3.44 -4.2,3.81 -1.65,0.493 -3.53,3.12 -4.58,6.39 -0.258,0.8 -0.476,1.26 -0.483,1.02 z m 13.9,-10.2 c -0.227,-0.367 1.04,-1.72 1.4,-1.5 0.499,0.308 0.354,0.86 -0.344,1.32 -0.757,0.496 -0.851,0.512 -1.05,0.182 z"
                 fill="#493521"
                 id="path10"
                 sodipodi:nodetypes="ccccsccccccccccsccccccccccccccscccscscccccccccccccccccccccccccscccccccccccccccccssccsccccccccccccccccccccsccccccccccccsccccccccccccssccscscccccscccccccscccccccccccccsccccccccccsccccsccccssscccccsccccccsccccccsscscccsscccccsccscscscscccccccccccsccccccccccccsccscccccccccccscsccccccccccccscsccssscccccccsssccccccscccccscsccccccccssscccccsccccccccccccccccccccccccccccccsccssscccccccccssccscsccccccscccscccccccccscccsscccccccsscccccccsccsccccccccccscccsscccssccccccccccccsccccccccccccscccccccsccccsccsccccsccccssccccsccccsccccccccscccccccccsccssscccsccccscscccccccccccccccccccccccccccccccccccccccccccccc" />
        </g>
        <path
             transform="matrix(0.128,0,0,0.128,489,41.7)"
             d="m 480.25167,-18.395824 c -138.65932,0 -269.87784,56.889282 -367.9248,155.014554 -98.046949,98.12525 -153.129152,231.21166 -153.129152,369.98174 0.01105,138.03195 54.521066,270.46786 151.656442,368.46001 13.86859,12.0823 27.2383,23.26591 37.91412,32.05303 2.30477,-1.91719 3.42224,-4.81295 5.11839,-9.20651 16.66226,-43.03693 48.98903,-86.77283 75.32935,-101.85073 29.03424,-16.47586 59.36552,-32.35259 68.2454,-35.84747 35.91863,-14.07937 77.42461,-18.67263 77.42461,-8.55746 0,3.42498 0.4859,3.48489 5.67714,0.77586 20.45367,-10.68434 24.64418,-2.85581 11.47401,21.46854 -9.82774,18.17337 -7.55289,20.47 2.69389,2.72601 13.86859,-23.96488 28.53536,-31.85332 37.2157,-19.97074 2.35467,3.22528 3.2227,3.35509 6.14608,0.93264 2.94333,-2.43643 3.91114,-2.19678 7.15379,1.81733 2.99322,3.70457 4.10071,4.06405 5.43768,1.78738 3.17282,-5.38211 10.27672,-7.35921 31.8279,-8.83704 25.14304,-1.72747 32.72586,-4.40355 43.60122,-15.47732 4.41002,-4.45348 8.81005,-8.10812 9.77786,-8.10812 0.9678,0 2.12518,-3.12542 2.57417,-6.94981 1.37687,-11.78274 -11.27446,-13.48025 -35.02067,-4.7131 -31.0297,11.48317 -70.34066,-1.20823 -61.46077,-19.87088 7.61276,-16.07644 -2.89344,-27.16019 -24.5444,-25.96195 -12.2722,0.66702 -12.2722,0.66802 -17.56022,-9.8256 C 392.80544,647.36517 386.60947,644.07 367.95174,644.07 c -16.56248,0 -18.55796,-0.80881 -15.26542,-6.141 1.7261,-2.77593 1.4567,-4.773 -1.15738,-8.50753 -1.87575,-2.68606 -3.41226,-6.82999 -3.41226,-9.21649 0,-2.38651 -3.11296,-7.9883 -6.90436,-12.48171 -6.79461,-7.99828 -24.44463,-41.03986 -35.61931,-66.70225 -3.77146,-8.6673 -7.31344,-13.67995 -10.47627,-14.87819 -2.97327,-1.12835 -4.33019,-2.9357 -3.60185,-4.81295 1.21725,-3.18533 -1.46667,-9.45614 -5.9964,-13.97951 -3.99097,-4.01412 -15.16565,-28.4583 -16.76203,-36.84601 -3.45218,-17.37453 -5.41773,-20.76956 -13.76881,-24.06473 -44.89829,-17.97366 -44.79851,-116.82878 0.19655,-143.78927 20.75299,-12.0823 23.14756,-14.47879 52.58088,-52.22347 36.11819,-46.3321 48.49016,-56.21761 86.90314,-69.598 38.91185,-13.5801 103.76493,-16.67557 133.69712,-6.50048 45.49694,15.77688 53.97773,12.88113 99.77398,-34.14995 15.46496,-15.67703 15.66451,-15.87673 22.34937,-13.08083 2.80365,1.13833 5.35786,0.59313 7.97193,-1.69751 3.08302,-2.70604 9.36879,-3.45494 32.02746,-3.81441 15.46496,-0.24664 31.62835,-1.04847 35.91863,-1.7774 5.85672,-1.00852 7.74246,-0.63207 7.74246,1.52776 0,1.76741 4.41,3.88431 11.57378,5.56185 25.24281,5.8714 46.59444,20.07059 52.97998,35.14849 3.0431,7.18947 9.81775,14.77834 13.26994,14.77834 1.50658,0 2.7338,1.85728 2.7338,4.13395 0,3.15537 1.37689,4.13394 5.80685,4.13394 38.81208,0 9.90756,125.81561 -32.12722,139.79513 -1.97552,0.65803 -4.9887,4.20384 -6.69483,7.87845 -2.22496,4.80296 -5.56739,7.57889 -11.8731,9.8955 -9.43862,3.43497 -18.55796,13.08083 -23.14757,24.36429 -3.30251,8.20797 -14.26768,15.87674 -26.44011,18.57278 -11.8731,2.63614 -18.25863,7.15951 -19.95478,14.17922 -0.7962,3.19532 -3.46217,9.03676 -5.93656,12.98098 -4.65945,7.47904 -15.36519,32.15288 -22.44915,51.52449 -4.41998,12.18215 -4.41,34.84893 0.039,50.82552 1.26713,4.54334 4.20048,16.87527 6.52522,27.45975 2.32473,10.58449 7.05402,24.96342 10.47627,32.05303 3.46215,7.06964 8.59054,18.87234 11.37422,26.26151 2.81363,7.38917 6.26582,15.27761 7.66265,17.57425 1.39683,2.27666 4.72929,9.71576 7.40322,16.57571 2.67395,6.82 6.36558,13.58009 8.20143,15.0779 1.83584,1.47783 3.33245,4.73306 3.33245,7.23939 0,2.69605 1.83584,5.35216 4.50978,6.53043 3.54198,1.55772 4.27033,3.18533 3.38234,7.62882 -1.02768,5.13248 -0.21751,6.05113 8.90982,10.08522 5.52747,2.4564 12.07264,5.42205 14.567,6.59034 6.41546,3.03555 15.36519,0.45633 13.66903,-3.9542 -0.98876,-2.57623 -0.47193,-3.11544 2.0753,-2.13687 1.86578,0.71595 4.00093,0.30954 4.74924,-0.90468 2.05534,-3.32512 21.4514,-11.38331 38.41298,-15.97658 22.14982,-6.01119 36.81659,-11.38332 38.51276,-14.17922 1.68617,-2.72601 18.7575,-5.36214 34.82111,-5.36214 11.37424,-10e-4 27.43785,8.13807 27.43785,13.87965 0,1.54774 1.40681,3.98417 3.11294,5.41207 1.71612,1.42791 4.57963,7.61884 6.36558,13.77981 3.4422,11.88258 15.76429,32.55229 18.05909,30.25566 0.73833,-0.73892 4.56965,0.39143 8.50075,2.51631 3.94107,2.12688 7.55288,3.43497 8.04178,2.91573 0.0436,-0.0466 0.55873,-0.80083 1.26712,-1.90721 27.81278,-65.00741 42.16987,-134.98258 42.20427,-205.69854 0,-138.77008 -55.08207,-271.85649 -153.12903,-369.98174 C 754.32745,38.718129 619.58556,-18.171153 480.92624,-18.171153 Z M 692.53643,145.1302 c -2.38459,-0.0744 -5.34788,1.59766 -12.07264,5.43204 -9.50846,5.38211 -14.06813,6.72015 -21.75073,6.38065 -16.26316,-0.71695 -24.44462,7.39916 -27.33807,27.1602 -1.4567,9.98536 -9.45857,22.26737 -14.567,22.26737 -3.09299,0 -5.21818,4.53335 -5.15832,10.9839 0.0274,3.14539 3.10297,6.33072 10.27672,10.68434 11.97288,7.24938 12.6713,10.7842 3.88121,19.57132 -8.35108,8.35775 -10.97513,7.19945 -11.77333,-5.22235 -0.35719,-5.57183 -1.74604,-10.78419 -3.09299,-11.68288 -3.65172,-2.32659 -11.77333,-1.94714 -11.77333,0.55219 0,3.13541 -21.15208,1.55772 -22.2496,-1.65757 -0.46794,-1.41792 0.62159,-2.58621 2.42451,-2.58621 11.474,0 -3.03313,-8.867 -28.63513,-17.47439 -50.68518,-17.07497 -95.38392,-16.77541 -118.73103,0.56318 -5.15831,3.84436 -9.3588,5.19239 -15.46497,4.96272 -7.62272,-0.28258 -7.93203,-0.11083 -3.25263,1.82733 7.05402,2.91572 0.61461,8.02823 -10.17694,8.10811 -10.97514,0.0733 -22.84824,3.29517 -25.54214,6.91986 -2.46441,3.25523 -5.54743,5.61178 -28.63513,21.86795 -23.94576,16.77542 -53.47886,43.93562 -54.77592,50.2264 -0.63955,3.19531 -3.82133,8.6673 -7.08394,12.18214 -3.25264,3.49488 -5.92658,7.17948 -5.92658,8.19799 0,1.01851 -0.81415,1.84729 -1.80591,1.84729 -0.99175,0 -2.32473,2.57623 -2.95331,5.7316 -0.63057,3.15538 -4.09073,9.42619 -7.69257,13.97952 -3.60185,4.52337 -8.89984,12.88112 -11.77334,18.57278 -2.87348,5.68167 -7.03406,12.88112 -9.23906,16.07644 -3.87123,5.49195 -3.95105,9.69579 -0.41307,22.36722 5.02861,18.07351 56.57185,1.7075 56.57185,-17.97366 0,-4.69312 5.62725,-7.47904 10.17694,-5.04261 10.27672,5.49195 13.66904,25.16312 6.34563,36.24688 -6.47533,9.78566 -3.70162,24.36429 5.67714,29.75639 7.29348,4.25377 13.46949,2.33658 24.34485,-7.58888 26.63965,-24.26444 25.64191,-23.66532 34.82111,-22.16751 4.64947,0.73292 12.97062,3.62469 18.35842,6.43057 5.47759,2.79591 15.26541,6.01119 21.65095,7.13954 6.4454,1.12835 13.56926,2.91573 15.86406,3.96419 15.06587,6.99974 33.62383,11.78273 37.31546,9.60592 2.17508,-1.25815 10.47628,-3.03555 18.45819,-3.94422 7.95199,-0.90767 18.85728,-2.17681 24.24508,-2.82585 7.80232,-0.93563 10.07717,-0.50227 11.07491,2.12688 1.74604,4.56331 5.64721,4.12395 10.27672,-1.14832 7.05402,-7.96832 21.95027,-16.17629 29.63287,-16.376 4.04085,-0.0799 9.19916,-0.89768 11.474,-1.81734 3.42225,-1.37798 4.75923,-0.37644 7.77239,5.83146 3.64176,7.49901 3.64176,7.49901 2.52429,-3.2752 -1.03765,-9.98537 -0.63356,-11.28347 5.78689,-18.57278 3.80139,-4.3037 8.9597,-10.7842 11.47401,-14.37893 2.5143,-3.62469 9.70801,-9.53603 15.96384,-13.18068 6.27578,-3.59474 17.46044,-12.48171 24.74395,-19.77103 7.33338,-7.26935 14.66677,-13.18068 16.36292,-13.18068 1.69616,0 6.25583,-2.8658 10.27672,-6.36068 7.14382,-6.2808 11.47401,-6.56039 11.47401,-0.7529 0,7.73866 29.23377,-5.38211 42.20439,-18.9722 9.55835,-9.98536 11.57378,-10.9839 10.07718,-5.17241 -1.327,5.09253 1.96554,6.96978 7.96195,4.53335 2.64401,-1.06843 7.44315,-2.51631 10.67582,-3.21529 4.85899,-1.04846 5.42771,-1.77739 3.36238,-4.27373 -1.92564,-2.32659 -1.93561,-3.69459 -0.0624,-5.95128 5.8667,-7.07963 -1.62632,-48.12947 -8.14157,-44.63459 -2.47439,1.32805 -6.67487,1.86726 -9.33883,1.19824 -5.8268,-1.46784 -8.51072,1.9172 -4.93882,6.22089 4.56965,5.51192 -7.13383,26.56107 -18.65773,33.45098 -12.57152,7.54893 -13.36972,7.2993 -14.567,-4.68314 -1.02768,-10.28493 -1.03765,-10.28493 -10.27672,-11.38332 -16.8618,-1.86726 -8.46083,-16.57571 9.43862,-16.57571 2.46442,0 3.04311,-2.15684 2.64401,-9.81561 -0.91592,-17.27469 6.76468,-33.55083 15.86406,-33.55083 7.60278,0 10.07717,-4.84291 6.17601,-12.282 -1.82587,-3.52484 -2.74379,-7.32926 -2.04537,-8.44762 1.66623,-2.69605 13.36971,5.65171 13.36971,9.53602 0,2.07696 2.46442,2.95567 8.26129,2.95567 7.80232,0 8.26128,0.3435 8.26128,6.20091 0,5.04261 0.86505,6.20091 4.64947,6.22089 2.55422,0.0125 8.13158,0.59812 12.37198,1.29809 9.07942,1.49781 9.8876,-0.77586 3.47213,-9.78566 -2.67395,-3.75449 -3.78144,-7.54893 -2.96329,-10.08522 1.04763,-3.30515 0.59166,-3.84436 -2.28482,-2.74597 -2.93336,1.12834 -3.27259,0.65104 -1.86578,-2.5962 3.12293,-7.18946 1.56645,-13.5801 -4.92883,-20.27029 -3.52202,-3.63467 -6.40549,-7.2993 -6.40549,-8.14806 0,-2.40647 -8.83997,-13.77981 -10.67582,-13.77981 -0.92191,0 -1.67619,1.88724 -1.67619,4.20384 0,6.12103 -5.18825,7.12956 -11.97288,2.31661 -3.24266,-2.31661 -12.07265,-6.53043 -19.65548,-9.36627 -7.53293,-2.83585 -16.4627,-7.20944 -19.85502,-9.70578 -2.68392,-1.98709 -4.19051,-3.10545 -6.0463,-3.15538 z m 39.41072,84.2765 c -5.82679,0.24863 -10.17694,10.78419 -5.69709,21.66824 3.65172,8.75717 3.69164,8.74718 10.27672,-2.51631 5.2082,-8.89696 5.32793,-9.70578 2.21499,-14.47878 -2.01544,-3.08548 -4.19051,-4.49342 -6.2259,-4.63321 -0.19057,-0.0138 -0.38114,-0.0159 -0.56872,-0.008 z m -392.11172,39.54205 c 0.22649,0.0175 0.43003,0.0782 0.60563,0.18772 3.89119,2.40647 2.77371,6.73014 -2.68392,10.28493 -5.90662,3.87432 -6.64495,4.00413 -8.24133,1.41792 -1.65625,-2.68606 6.91434,-12.18215 10.27672,-11.88259 z m 308.30159,154.77317 c -4.40003,0 -5.62725,2.99561 -2.11521,5.17242 1.33697,0.82879 1.37687,2.58621 0.0955,4.97272 -1.29706,2.41646 -1.22722,4.44348 0.20055,5.87139 7.94201,7.94835 -11.07491,23.0662 -24.5444,19.47147 -9.86765,-2.64613 -12.2722,-2.1868 -9.81776,1.8373 3.15286,5.11251 27.03875,1.42791 34.02293,-5.2523 11.27446,-10.78419 12.67129,-32.05302 2.1152,-32.05302 z m -270.38748,25.6624 c -2.27485,-0.0998 -4.24039,3.14539 -6.46534,9.89549 -4.60956,13.97952 -6.71479,15.47732 -32.32678,23.56547 -12.87084,4.07403 -23.44688,7.79857 -23.44688,8.27787 0,1.60764 79.61963,-20.37015 81.81466,-22.56693 2.03538,-2.03702 -1.36691,-5.59181 -5.34789,-5.59181 -2.17507,0 -5.67713,-3.16536 -8.16151,-7.39915 -2.3846,-4.04408 -4.33019,-6.15099 -6.10616,-6.22089 z m 55.57411,30.45536 c -1.08754,-0.0939 -2.6939,0.28359 -4.70934,1.28812 -10.27672,5.12249 -21.95026,9.08668 -40.90732,13.87965 -25.54214,6.49049 -33.62383,9.6958 -19.9548,7.96833 6.57511,-0.83278 9.80778,-0.48329 9.80778,1.05845 0,3.63467 11.77334,2.68606 20.25412,-1.61763 17.56022,-8.97685 24.1453,-4.3037 13.56926,9.69579 -3.17281,4.21382 -4.13064,6.34071 -2.13516,4.73306 1.99548,-1.60764 6.86444,-8.4576 10.87536,-15.27761 3.97101,-6.78006 9.26901,-13.97951 11.77333,-15.97659 3.81137,-3.09546 3.9311,-5.58182 1.52654,-5.79151 z m -61.85986,42.2381 c -0.27837,-0.0142 -0.54976,-0.0127 -0.81017,0.006 -0.96282,0.0684 -1.78595,0.36647 -2.36464,0.95361 -1.52654,1.55771 -0.71738,3.40501 2.70387,6.20091 6.06626,4.96273 10.57604,5.12249 10.57604,0.37046 -0.0158,-3.54481 -5.94653,-7.31928 -10.17694,-7.52897 z m 12.37197,97.95645 c -4.32021,0 -11.07491,7.75863 -9.25903,10.68434 2.23494,3.6147 7.03406,1.4978 10.07718,-4.47344 3.03312,-5.8714 2.99321,-6.20092 -0.86305,-6.20092 z M 894.6785,662.9713 c -1.06757,0.11883 -2.1152,3.415 -2.39457,7.67875 -0.37315,5.69166 0.0447,7.2993 1.34696,5.16243 2.85352,-4.69312 3.59185,-12.18214 1.26712,-12.78127 -0.071,-0.021 -0.14367,-0.0274 -0.21451,-0.0195 z M 352.90583,787.78838 c -0.99526,0 -2.48438,0.43037 -4.46988,1.38797 -2.56419,1.23818 -3.50207,2.3166 -2.08527,2.3865 1.41679,0.0769 2.61407,2.23672 2.66396,4.79298 0.0769,4.32366 0.30631,4.23379 3.26261,-1.21822 2.61408,-4.82293 2.81155,-7.34923 0.62958,-7.34923 z m -17.56023,7.61884 c -1.81588,0.20669 -8.28124,5.19239 -15.76428,13.08083 -4.21046,4.42351 -8.57059,8.0482 -9.67808,8.0482 -1.1474,0 -1.51657,3.09547 -0.84808,7.21942 0.67846,4.18387 0.15965,8.43764 -1.23719,10.08522 -6.19596,7.47904 -31.32903,65.10459 -31.12949,71.19566 0.1327,3.01558 4.74925,-6.87991 10.27672,-22.06766 3.17282,-8.68726 8.51072,-20.96927 11.87311,-27.16019 17.16112,-31.95317 24.94349,-44.73444 32.52631,-53.42171 4.30027,-4.95274 5.24812,-7.04967 4.00094,-6.89989 z m -43.00257,34.14995 c -0.11276,-0.12881 -3.85128,3.48489 -11.37424,10.68434 -12.87085,12.38186 -28.43558,31.75347 -34.22247,42.33795 -2.70388,4.94276 1.41679,0.23566 11.77332,-13.48024 5.14834,-6.82 15.66452,-19.37161 23.44689,-27.85917 7.03406,-7.74865 10.57604,-11.58303 10.47626,-11.78273 z"
             fill="#0c0d0c"
             stroke-width="1.05"
             id="path14"
             sodipodi:nodetypes="csccccccscccccccccscccccsccsccccccccccccccccsccssscccccccccscccccsccccccccccsccscsccsccccccscccccscscccccccccsscccccscccccccccccccccccccccscsccccccccccscscsccssscccccccssscccccccccccccccccccsccccccccccssscccccccsccscccccccccccccccccsccccsccccssccsccccccccccccccc" />
    </g>
</svg>
